#N canvas 155 22 629 505 10;
#X obj 97 344 expr~ atan($v1);
#X obj 96 309 *~;
#X floatatom 135 308 5 0 0 0 - - -;
#X floatatom 145 379 5 0 0 0 - - -;
#X obj 97 378 *~ 0.7;
#X obj 90 408 clip~ -1 1;
#X obj 92 442 outlet~;
#X obj 237 247 loadbang;
#X obj 237 276 f \$1;
#X obj 273 276 f \$2;
#X obj 94 258 *~;
#X obj 92 208 inlet~;
#X obj 61 259 *~;
#X obj 6 120 pack 0 20;
#X obj 6 141 line~;
#X obj 49 162 *~ -1;
#X obj 49 183 +~ 1;
#X obj 199 41 r \$3;
#X obj 199 62 route distortion;
#X obj 199 83 route gain vol bypass;
#X obj 322 128 print \$3;
#X msg 322 107 something wrong with distortion routing;
#X connect 0 0 4 0;
#X connect 1 0 0 0;
#X connect 2 0 1 1;
#X connect 3 0 4 1;
#X connect 4 0 5 0;
#X connect 5 0 6 0;
#X connect 7 0 8 0;
#X connect 7 0 9 0;
#X connect 8 0 2 0;
#X connect 9 0 3 0;
#X connect 10 0 1 0;
#X connect 11 0 10 0;
#X connect 11 0 12 0;
#X connect 12 0 6 0;
#X connect 13 0 14 0;
#X connect 14 0 12 1;
#X connect 14 0 15 0;
#X connect 15 0 16 0;
#X connect 16 0 10 1;
#X connect 17 0 18 0;
#X connect 18 0 19 0;
#X connect 19 0 2 0;
#X connect 19 1 3 0;
#X connect 19 2 13 0;
#X connect 19 3 21 0;
#X connect 21 0 20 0;
