#N canvas 0 22 450 300 10;
#X obj 138 113 +~ 1;
#X obj 138 134 *~ 0.5;
#X obj 138 181 *~;
#X floatatom 201 171 5 0 0 0 - - -;
#X obj 138 92 cos~;
#X floatatom 147 33 5 0 0 0 - - -;
#X obj 138 202 vd~ buff;
#X obj 204 146 f \$2;
#X obj 138 71 phasor~ \$1;
#X obj 205 124 loadbang;
#X obj 138 223 outlet~;
#X connect 0 0 1 0;
#X connect 1 0 2 0;
#X connect 2 0 6 0;
#X connect 4 0 0 0;
#X connect 5 0 8 0;
#X connect 6 0 10 0;
#X connect 7 0 2 1;
#X connect 7 0 3 0;
#X connect 8 0 4 0;
#X connect 9 0 7 0;
