#N canvas 96 158 766 428 10;
#X obj 136 376 outlet~;
#X obj 441 121 delwrite~ \$0-buffer 100;
#X obj 442 97 inlet~;
#X obj 136 333 +~;
#X obj 54 241 delread4~ \$0-buffer;
#X obj 207 242 delread4~ \$0-buffer;
#X obj 251 263 delread4~ \$0-buffer;
#X obj 98 263 delread4~ \$0-buffer;
#X obj 98 89 loadbang;
#X obj 50 180 osc~;
#X obj 99 178 osc~;
#X obj 141 179 osc~;
#X obj 181 178 osc~;
#X obj 52 210 *~ \$1;
#X obj 153 210 *~ \$2;
#X obj 106 219 *~ \$3;
#X obj 208 215 *~ \$4;
#X obj 50 159 f \$5;
#X obj 99 157 f \$6;
#X obj 140 157 f \$7;
#X obj 181 157 f \$8;
#X obj 136 354 *~ 0.5;
#X obj 182 2 r \$9;
#X obj 182 23 route chorus;
#X obj 182 44 route mod_freq amp_freq;
#X obj 182 65 route v1 v2 v3 v4 all;
#X obj 335 65 route v1 v2 v3 v4 all;
#X msg 508 67 something wrong with routing chorus;
#X obj 508 88 print \$9;
#X connect 2 0 1 0;
#X connect 3 0 21 0;
#X connect 4 0 3 0;
#X connect 5 0 3 0;
#X connect 6 0 3 0;
#X connect 7 0 3 0;
#X connect 8 0 17 0;
#X connect 8 0 18 0;
#X connect 8 0 19 0;
#X connect 8 0 20 0;
#X connect 9 0 13 0;
#X connect 10 0 14 0;
#X connect 11 0 15 0;
#X connect 12 0 16 0;
#X connect 13 0 4 0;
#X connect 14 0 5 0;
#X connect 15 0 7 0;
#X connect 16 0 6 0;
#X connect 17 0 9 0;
#X connect 18 0 10 0;
#X connect 19 0 11 0;
#X connect 20 0 12 0;
#X connect 21 0 0 0;
#X connect 22 0 23 0;
#X connect 23 0 24 0;
#X connect 24 0 25 0;
#X connect 24 1 26 0;
#X connect 24 2 27 0;
#X connect 25 0 13 1;
#X connect 25 1 15 1;
#X connect 25 2 14 1;
#X connect 25 3 16 1;
#X connect 25 4 13 1;
#X connect 25 4 15 1;
#X connect 25 4 14 1;
#X connect 25 4 16 1;
#X connect 25 5 27 0;
#X connect 26 0 17 1;
#X connect 26 1 18 1;
#X connect 26 2 19 1;
#X connect 26 3 20 1;
#X connect 26 4 17 1;
#X connect 26 4 18 1;
#X connect 26 4 19 1;
#X connect 26 4 20 1;
#X connect 26 5 27 0;
#X connect 27 0 28 0;
