#N canvas 408 179 660 329 12;
#X obj 15 123 delwrite~ \$0-buf 200;
#X obj 127 171 *~ 0.5;
#X obj 198 173 rev1~, f 14;
#X floatatom 245 146 5 0 0 0 - - -;
#X obj 159 278 +~;
#X obj 198 197 hip~ 300;
#X obj 198 225 *~ 0.6;
#X obj 30 218 delread~ \$0-buf \$1;
#X obj 100 62 inlet~;
#X obj 135 313 outlet~;
#X obj 250 73 loadbang;
#X obj 250 97 f \$2;
#X obj 183 16 r \$3;
#X obj 183 40 route delay reverb;
#X text 344 55 param 1 = delay time param 2 = reverb time param 3 =
name, f 23;
#X obj 184 97 print;
#X connect 1 0 0 0;
#X connect 2 0 5 0;
#X connect 3 0 2 1;
#X connect 4 0 9 0;
#X connect 5 0 6 0;
#X connect 6 0 4 1;
#X connect 7 0 1 0;
#X connect 7 0 4 0;
#X connect 8 0 0 0;
#X connect 8 0 2 0;
#X connect 10 0 11 0;
#X connect 11 0 3 0;
#X connect 12 0 13 0;
#X connect 13 0 7 0;
#X connect 13 1 2 1;
#X connect 13 1 15 0;
