#N canvas 292 206 555 338 10;
#X obj -1 80 delwrite~ \$0-delay 500;
#X obj -1 54 inlet~;
#X obj 57 264 outlet~;
#X obj 187 195 *~;
#X obj 258 146 f \$2;
#X obj 258 167 / 100;
#X obj 258 188 moses 0.9;
#X obj 258 122 loadbang;
#X obj 57 243 delread~ \$0-delay \$1;
#X obj 192 17 r \$3;
#X obj 192 38 route delayFX;
#X obj 192 59 route del_time feedback;
#X msg 326 83 something wrong with routing delay;
#X obj 326 104 print \$3;
#X text 190 243 delay time;
#X text 69 100 max buffer time;
#X text 298 145 feedback in %;
#X text 324 187 safety mechanism to avoid setting feedback over 0.9
, f 20;
#X text 228 17 name of the instrument;
#X connect 1 0 0 0;
#X connect 3 0 0 0;
#X connect 4 0 5 0;
#X connect 5 0 6 0;
#X connect 6 0 3 1;
#X connect 7 0 4 0;
#X connect 8 0 2 0;
#X connect 8 0 3 0;
#X connect 9 0 10 0;
#X connect 10 0 11 0;
#X connect 11 0 8 0;
#X connect 11 1 4 1;
#X connect 11 2 12 0;
#X connect 12 0 13 0;
