#N canvas 334 253 450 300 10;
#X obj 147 63 delwrite~ \$0-delay 500;
#X obj 147 37 inlet~;
#X obj 181 173 delread4~ \$0-delay \$1;
#X obj 181 194 outlet~;
#X obj 311 125 *~;
#X obj 341 62 f \$2;
#X obj 341 83 / 100;
#X obj 341 104 moses 0.9;
#X obj 341 38 loadbang;
#X connect 1 0 0 0;
#X connect 2 0 3 0;
#X connect 2 0 4 0;
#X connect 4 0 0 0;
#X connect 5 0 6 0;
#X connect 6 0 7 0;
#X connect 7 1 4 1;
#X connect 8 0 5 0;
