#N canvas 446 198 558 300 10;
#X obj 99 108 inlet~;
#X obj 97 145 delwrite~ \$0-flang 100;
#X obj 211 214 *~ 0.8;
#X obj 114 241 delread4~ \$0-flang;
#X obj 114 262 outlet~;
#X obj 269 174 moses 0.95;
#X obj 265 115 loadbang;
#X obj 36 162 *~ 0.5;
#X obj 36 183 +~ 1.5;
#X obj 36 138 osc~ \$1;
#X obj 269 153 f \$3;
#X obj 36 204 *~ \$2;
#X obj 145 5 r \$4;
#X obj 145 26 route flanger;
#X obj 145 47 route freq_mod amp_mod feedback;
#X msg 331 78 something wrong routing flanger;
#X obj 331 99 print \$4;
#X connect 0 0 1 0;
#X connect 2 0 1 0;
#X connect 3 0 2 0;
#X connect 3 0 4 0;
#X connect 5 1 2 1;
#X connect 6 0 10 0;
#X connect 7 0 8 0;
#X connect 8 0 11 0;
#X connect 9 0 7 0;
#X connect 10 0 5 0;
#X connect 11 0 3 0;
#X connect 12 0 13 0;
#X connect 13 0 14 0;
#X connect 14 0 9 0;
#X connect 14 1 11 1;
#X connect 14 2 10 0;
#X connect 14 3 15 0;
#X connect 15 0 16 0;
