#N canvas 172 91 839 593 12;
#X obj 156 396 inlet~;
#X obj 68 444 pitchshift;
#X obj 74 330 line;
#X obj 131 240 del 1000;
#X obj 62 176 bng 15 250 50 0 empty empty empty 17 7 0 10 -262144 -1
-1;
#X obj 62 196 t b b;
#X obj 131 264 t b b;
#X obj 83 498 outlet~;
#X obj 110 169 loadbang;
#X obj 173 207 del 1000;
#X obj 202 133 f \$1;
#X obj 202 157 / 2;
#X obj 202 106 loadbang;
#X obj 35 254 pack 2 1000;
#X obj 74 354 - 1;
#X floatatom 74 378 5 0 0 0 - - -;
#X obj 129 308 pack 0 1000;
#X obj 74 401 * \$2;
#X obj 235 48 r \$3;
#X obj 235 72 route mod_freq mod_depth;
#X text 407 120 \$1 modulation frequency \$2 modulation depth \$3 instrument
name, f 24;
#X connect 0 0 1 1;
#X connect 1 0 7 0;
#X connect 2 0 14 0;
#X connect 3 0 6 0;
#X connect 4 0 5 0;
#X connect 5 0 3 0;
#X connect 5 1 13 0;
#X connect 6 0 9 0;
#X connect 6 1 16 0;
#X connect 8 0 4 0;
#X connect 9 0 4 0;
#X connect 10 0 11 0;
#X connect 11 0 9 1;
#X connect 11 0 3 1;
#X connect 11 0 13 1;
#X connect 11 0 16 1;
#X connect 12 0 10 0;
#X connect 13 0 2 0;
#X connect 14 0 15 0;
#X connect 15 0 17 0;
#X connect 16 0 2 0;
#X connect 17 0 1 0;
#X connect 18 0 19 0;
#X connect 19 0 10 0;
#X connect 19 1 17 1;
