#N canvas 0 66 1280 412 10;
#X obj 306 50 r \$1;
#X obj 306 171 pack s s;
#X msg 306 193 \; \$1 label \$2 \;;
#X obj 306 92 t b a;
#X obj 352 107 list prepend symbol;
#X obj 352 130 list trim;
#X obj 306 71 route select_fx;
#X obj 101 101 cnv 15 98 28 empty \$0-select_fx chorus 10 12 0 14 -210580
-66577 0;
#X obj 306 150 symbol \$0-select_fx;
#X obj 950 55 inlet~;
#X obj 590 249 *~;
#X obj 699 300 outlet~;
#X obj 583 75 bng 15 250 50 0 empty empty empty 17 7 0 10 -262144 -1
-1;
#X obj 873 93 bng 15 250 50 0 empty empty empty 17 7 0 10 -262144 -1
-1;
#X obj 1106 69 bng 15 250 50 0 empty empty empty 17 7 0 10 -262144
-1 -1;
#X obj 583 25 t a b;
#X obj 577 107 t b b;
#X msg 569 136 1;
#X msg 604 134 0;
#X obj 566 174 pack 0 20;
#X obj 566 195 line~;
#X obj 880 185 pack 0 20;
#X obj 880 206 line~;
#X obj 878 239 *~;
#X obj 887 120 t b b;
#X msg 879 149 1;
#X msg 914 147 0;
#X text 92 273 Parameters 1 = Name 2 = FX 1 3 = FX 2;
#X obj 1091 190 pack 0 20;
#X obj 1091 211 line~;
#X obj 1091 233 *~;
#X obj 1104 98 t b b;
#X msg 1096 127 1;
#X msg 1131 125 0;
#X obj 584 50 route \$2 \$3 \$4;
#X msg 329 310 \; drums select_fx flanger \;;
#X msg 328 344 \; drums select_fx gs \;;
#X obj 915 225 flanger 100 20 0.9 \$1;
#X obj 602 218 chorus 4 3 9 8 0.5 0.8 0.6 0.9 \$1;
#X msg 327 278 \; drums select_fx chorus \;;
#X obj 788 269 *~ 0.5;
#X obj 1180 213 gs~ 1000 50 1 \$1;
#X obj 895 266 *~ 0.5;
#X connect 0 0 6 0;
#X connect 1 0 2 0;
#X connect 3 0 8 0;
#X connect 3 1 4 0;
#X connect 4 0 5 0;
#X connect 5 0 1 1;
#X connect 6 0 3 0;
#X connect 6 0 15 0;
#X connect 8 0 1 0;
#X connect 9 0 37 0;
#X connect 9 0 38 0;
#X connect 9 0 41 0;
#X connect 10 0 11 0;
#X connect 12 0 16 0;
#X connect 13 0 24 0;
#X connect 14 0 31 0;
#X connect 15 0 34 0;
#X connect 16 0 17 0;
#X connect 16 1 18 0;
#X connect 17 0 19 0;
#X connect 18 0 21 0;
#X connect 19 0 20 0;
#X connect 20 0 10 1;
#X connect 21 0 22 0;
#X connect 22 0 23 0;
#X connect 23 0 40 0;
#X connect 24 0 25 0;
#X connect 24 1 26 0;
#X connect 25 0 21 0;
#X connect 26 0 19 0;
#X connect 28 0 29 0;
#X connect 29 0 30 0;
#X connect 30 0 42 0;
#X connect 31 0 32 0;
#X connect 31 1 33 0;
#X connect 32 0 28 0;
#X connect 33 0 21 0;
#X connect 33 0 19 0;
#X connect 34 0 12 0;
#X connect 34 1 13 0;
#X connect 34 2 14 0;
#X connect 37 0 23 1;
#X connect 38 0 10 0;
#X connect 40 0 11 0;
#X connect 41 0 30 1;
#X connect 42 0 11 0;
#X coords 0 -1 1 1 100 30 2 100 100;
