#N canvas -2 27 1280 577 10;
#X obj 306 50 r \$1;
#X obj 306 171 pack s s;
#X msg 306 193 \; \$1 label \$2 \;;
#X obj 306 92 t b a;
#X obj 352 107 list prepend symbol;
#X obj 352 130 list trim;
#X obj 306 71 route select_fx;
#X obj 101 101 cnv 15 98 28 empty \$0-select_fx freqmod 10 12 0 14
-210580 -66577 0;
#X obj 306 150 symbol \$0-select_fx;
#X obj 774 80 inlet~;
#X obj 590 249 *~;
#X obj 644 347 outlet~;
#X obj 583 75 bng 15 250 50 0 empty empty empty 17 7 0 10 -262144 -1
-1;
#X obj 641 77 bng 15 250 50 0 empty empty empty 17 7 0 10 -262144 -1
-1;
#X obj 699 77 bng 15 250 50 0 empty empty empty 17 7 0 10 -262144 -1
-1;
#X obj 583 25 t a b;
#X obj 577 107 t b b;
#X msg 569 136 1;
#X msg 604 134 0;
#X obj 566 174 pack 0 20;
#X obj 566 195 line~;
#X obj 785 167 pack 0 20;
#X obj 785 188 line~;
#X obj 783 221 *~;
#X obj 655 104 t b b;
#X msg 647 133 1;
#X msg 682 131 0;
#X obj 584 50 route \$2 \$3;
#X text 92 273 Parameters 1 = Name 2 = FX 1 3 = FX 2;
#X obj 625 211 ring 200 1 \$1;
#X msg 269 309 \; piano select_fx ring \;;
#X msg 271 341 \; piano select_fx freqmod \;;
#X obj 832 217 freqmod 1000 0.5;
#X obj 644 274 +~;
#X obj 644 310 hip~;
#X obj 972 30 r pedal_data;
#X obj 972 51 route ringthing;
#X obj 972 93 * 5000;
#X obj 972 114 + 100;
#X obj 972 72 route filterfreq preset;
#X obj 1004 202 tgl 15 0 empty empty empty 17 7 0 10 -262144 -1 -1
0 1;
#X obj 1044 203 tgl 15 0 empty empty empty 17 7 0 10 -262144 -1 -1
0 1;
#X obj 1084 203 tgl 15 0 empty empty empty 17 7 0 10 -262144 -1 -1
0 1;
#X obj 1124 202 tgl 15 0 empty empty empty 17 7 0 10 -262144 -1 -1
1 1;
#X obj 1004 225 sel 1;
#X obj 1044 225 sel 1;
#X obj 1084 225 sel 1;
#X obj 1124 225 sel 1;
#X obj 1025 151 route 1 2 3 4;
#X msg 1044 302 \; piano select_fx freqmod \; piano freqmod mod_freq
500 \; piano freqmod_depth 1.5 \;;
#X msg 1004 247 \; piano select_fx ring \; piano ring mod_freq 100
\; piano ring depth 2 \;;
#X msg 1085 357 \; piano select_fx ring \; piano ring mod_freq 300
\; piano ring depth 5 \;;
#X msg 1124 412 \; piano select_fx freqmod \; piano freqmod mod_freq
2200 \; piano freqmod_depth 4 \;;
#X connect 0 0 6 0;
#X connect 1 0 2 0;
#X connect 3 0 8 0;
#X connect 3 1 4 0;
#X connect 4 0 5 0;
#X connect 5 0 1 1;
#X connect 6 0 3 0;
#X connect 6 0 15 0;
#X connect 8 0 1 0;
#X connect 9 0 29 0;
#X connect 9 0 32 0;
#X connect 10 0 33 0;
#X connect 12 0 16 0;
#X connect 13 0 24 0;
#X connect 15 0 27 0;
#X connect 16 0 17 0;
#X connect 16 1 18 0;
#X connect 17 0 19 0;
#X connect 18 0 21 0;
#X connect 19 0 20 0;
#X connect 20 0 10 1;
#X connect 21 0 22 0;
#X connect 22 0 23 0;
#X connect 23 0 33 1;
#X connect 24 0 25 0;
#X connect 24 1 26 0;
#X connect 25 0 21 0;
#X connect 26 0 19 0;
#X connect 27 0 12 0;
#X connect 27 1 13 0;
#X connect 27 2 14 0;
#X connect 29 0 10 0;
#X connect 32 0 23 1;
#X connect 33 0 34 0;
#X connect 34 0 11 0;
#X connect 35 0 36 0;
#X connect 36 0 39 0;
#X connect 37 0 38 0;
#X connect 38 0 34 1;
#X connect 39 0 37 0;
#X connect 39 1 48 0;
#X connect 40 0 44 0;
#X connect 41 0 45 0;
#X connect 42 0 46 0;
#X connect 43 0 47 0;
#X connect 44 0 50 0;
#X connect 45 0 49 0;
#X connect 46 0 51 0;
#X connect 47 0 52 0;
#X connect 48 0 40 0;
#X connect 48 1 41 0;
#X connect 48 2 42 0;
#X connect 48 3 43 0;
#X coords 0 -1 1 1 100 30 2 100 100;
