#N canvas 121 245 1159 396 10;
#X obj 306 50 r \$1;
#X obj 306 171 pack s s;
#X msg 306 193 \; \$1 label \$2 \;;
#X obj 306 92 t b a;
#X obj 352 107 list prepend symbol;
#X obj 352 130 list trim;
#X obj 306 71 route select_fx;
#X obj 101 101 cnv 15 98 28 empty \$0-select_fx flang+tr+dist 10 12
0 14 -210580 -66577 0;
#X obj 306 150 symbol \$0-select_fx;
#X obj 769 44 inlet~;
#X obj 699 300 outlet~;
#X obj 583 25 t a b;
#X obj 584 50 route \$2 \$3;
#X text 92 273 Parameters 1 = Name 2 = FX 1 3 = FX 2;
#X obj 836 135 arctan_distortion 10 0.7 \$1;
#X obj 854 188 *~ 0.6;
#X obj 692 165 tremolo 5 0.7 \$1;
#X obj 687 133 flanger 1 3 0.7 \$1;
#X obj 254 292 loadbang;
#X msg 258 335 \; viola select_fx fl+tr+dist \;;
#X connect 0 0 6 0;
#X connect 1 0 2 0;
#X connect 3 0 8 0;
#X connect 3 1 4 0;
#X connect 4 0 5 0;
#X connect 5 0 1 1;
#X connect 6 0 3 0;
#X connect 6 0 11 0;
#X connect 8 0 1 0;
#X connect 9 0 14 0;
#X connect 9 0 17 0;
#X connect 11 0 12 0;
#X connect 14 0 15 0;
#X connect 15 0 10 0;
#X connect 16 0 10 0;
#X connect 17 0 16 0;
#X connect 18 0 19 0;
#X coords 0 -1 1 1 100 30 2 100 100;
