#N canvas 121 317 1159 396 10;
#X obj 306 50 r \$1;
#X obj 306 171 pack s s;
#X msg 306 193 \; \$1 label \$2 \;;
#X obj 306 92 t b a;
#X obj 352 107 list prepend symbol;
#X obj 352 130 list trim;
#X obj 306 71 route select_fx;
#X obj 101 101 cnv 15 98 28 empty \$0-select_fx ring+dist 10 12 0 14
-210580 -66577 0;
#X obj 306 150 symbol \$0-select_fx;
#X obj 774 80 inlet~;
#X obj 590 249 *~;
#X obj 699 300 outlet~;
#X obj 583 75 bng 15 250 50 0 empty empty empty 17 7 0 10 -262144 -1
-1;
#X obj 641 77 bng 15 250 50 0 empty empty empty 17 7 0 10 -262144 -1
-1;
#X obj 699 77 bng 15 250 50 0 empty empty empty 17 7 0 10 -262144 -1
-1;
#X obj 583 25 t a b;
#X obj 577 107 t b b;
#X msg 569 136 1;
#X msg 604 134 0;
#X obj 566 174 pack 0 20;
#X obj 566 195 line~;
#X obj 785 167 pack 0 20;
#X obj 785 188 line~;
#X obj 783 221 *~;
#X obj 655 104 t b b;
#X msg 647 133 1;
#X msg 682 131 0;
#X obj 584 50 route \$2 \$3;
#X text 92 273 Parameters 1 = Name 2 = FX 1 3 = FX 2;
#X msg 271 341 \; sax select_fx ring+dist \;;
#X msg 269 309 \; sax select_fx del+rev \;;
#X obj 609 217 del+rev 120 45 \$1;
#X obj 836 112 ring 180 1 \$1;
#X obj 836 135 arctan_distortion 15 0.7 \$1;
#X floatatom 843 220 5 0 0 0 - - -;
#X connect 0 0 6 0;
#X connect 1 0 2 0;
#X connect 3 0 8 0;
#X connect 3 1 4 0;
#X connect 4 0 5 0;
#X connect 5 0 1 1;
#X connect 6 0 3 0;
#X connect 6 0 15 0;
#X connect 8 0 1 0;
#X connect 9 0 31 0;
#X connect 9 0 32 0;
#X connect 10 0 11 0;
#X connect 12 0 16 0;
#X connect 13 0 24 0;
#X connect 15 0 27 0;
#X connect 16 0 17 0;
#X connect 16 1 18 0;
#X connect 17 0 19 0;
#X connect 18 0 21 0;
#X connect 19 0 20 0;
#X connect 20 0 10 1;
#X connect 21 0 22 0;
#X connect 22 0 23 0;
#X connect 23 0 11 0;
#X connect 24 0 25 0;
#X connect 24 1 26 0;
#X connect 25 0 21 0;
#X connect 26 0 19 0;
#X connect 27 0 12 0;
#X connect 27 1 13 0;
#X connect 27 2 14 0;
#X connect 31 0 10 0;
#X connect 32 0 33 0;
#X connect 33 0 23 1;
#X coords 0 -1 1 1 100 30 2 100 100;
