#N canvas 395 334 450 300 12;
#X obj 241 137 rev2~ 100 90 3000 20;
#X obj 241 104 inlet~;
#X obj 241 189 outlet~;
#X obj 241 165 mygate~ \$1 1 100 50;
#X obj 370 107 inlet;
#X connect 0 0 3 0;
#X connect 1 0 0 0;
#X connect 3 0 2 0;
#X connect 4 0 3 1;
