#N canvas 0 238 836 381 10;
#X obj 165 265 pitchshift;
#X obj 238 266 pitchshift;
#X obj 308 265 pitchshift;
#X obj 377 266 pitchshift;
#X obj 524 251 inlet~;
#X obj 456 92 unpack f f f f;
#X floatatom 166 241 5 0 0 0 - - -;
#X floatatom 239 240 5 0 0 0 - - -;
#X floatatom 309 241 5 0 0 0 - - -;
#X floatatom 377 243 5 0 0 0 - - -;
#X obj 293 360 outlet~;
#X obj 109 57 f \$1;
#X obj 186 61 f \$2;
#X obj 275 59 f \$3;
#X obj 366 64 f \$4;
#X obj 155 -6 loadbang;
#X obj 468 8 r \$5;
#X obj 468 29 route harmonizer;
#X obj 468 50 route v1 v2 v3 v4 all;
#X msg 607 76 something wrong routing harmonizer;
#X obj 607 97 print \$5;
#X obj 293 339 *~ 0.5;
#X connect 0 0 21 0;
#X connect 1 0 21 0;
#X connect 2 0 21 0;
#X connect 3 0 21 0;
#X connect 4 0 0 1;
#X connect 4 0 1 1;
#X connect 4 0 2 1;
#X connect 4 0 3 1;
#X connect 5 0 6 0;
#X connect 5 1 7 0;
#X connect 5 2 8 0;
#X connect 5 3 9 0;
#X connect 6 0 0 0;
#X connect 7 0 1 0;
#X connect 8 0 2 0;
#X connect 9 0 3 0;
#X connect 11 0 6 0;
#X connect 12 0 7 0;
#X connect 13 0 8 0;
#X connect 14 0 9 0;
#X connect 15 0 11 0;
#X connect 15 0 12 0;
#X connect 15 0 13 0;
#X connect 15 0 14 0;
#X connect 16 0 17 0;
#X connect 17 0 18 0;
#X connect 18 0 11 0;
#X connect 18 1 12 0;
#X connect 18 2 13 0;
#X connect 18 3 14 0;
#X connect 18 4 5 0;
#X connect 18 5 19 0;
#X connect 19 0 20 0;
#X connect 21 0 10 0;
