#N canvas 226 247 466 300 10;
#X obj 61 170 pitchshift;
#X obj 134 171 pitchshift;
#X obj 204 170 pitchshift;
#X obj 273 171 pitchshift;
#X obj 103 16 inlet~;
#X obj 344 -156 inlet;
#X msg 248 -29 -5 -1 0 4;
#X obj 247 26 unpack f f f f;
#X floatatom 62 146 5 0 0 0 - - -;
#X floatatom 135 145 5 0 0 0 - - -;
#X floatatom 205 146 5 0 0 0 - - -;
#X floatatom 273 148 5 0 0 0 - - -;
#X obj 193 240 outlet~;
#X obj 193 219 *~ 0.5;
#X obj 344 -135 f;
#X obj 344 -114 + 1;
#X obj 344 -93 % 4;
#X obj 344 -72 sel 1 2 3 4;
#X msg 317 -28 -9 -1 0 7;
#X obj 274 -140 loadbang;
#X msg 383 -27 -6 -1 0 5;
#X msg 452 -26 0 3 7 10;
#X connect 0 0 13 0;
#X connect 1 0 13 0;
#X connect 2 0 13 0;
#X connect 3 0 13 0;
#X connect 4 0 0 1;
#X connect 4 0 1 1;
#X connect 4 0 2 1;
#X connect 4 0 3 1;
#X connect 5 0 14 0;
#X connect 6 0 7 0;
#X connect 7 0 8 0;
#X connect 7 1 9 0;
#X connect 7 2 10 0;
#X connect 7 3 11 0;
#X connect 8 0 0 0;
#X connect 9 0 1 0;
#X connect 10 0 2 0;
#X connect 11 0 3 0;
#X connect 13 0 12 0;
#X connect 14 0 15 0;
#X connect 15 0 16 0;
#X connect 16 0 14 1;
#X connect 16 0 17 0;
#X connect 17 0 6 0;
#X connect 17 1 18 0;
#X connect 17 2 20 0;
#X connect 17 3 21 0;
#X connect 18 0 7 0;
#X connect 19 0 14 0;
#X connect 20 0 7 0;
#X connect 21 0 7 0;
