#N canvas 539 146 642 453 10;
#X obj 101 101 cnv 15 98 58 empty empty empty 10 65 0 14 -233017 -66577
0;
#X obj 38 242 inlet~;
#X obj 96 324 *~;
#X obj 72 372 outlet~;
#X obj 126 325 *~;
#X obj 132 375 outlet~;
#X obj 98 235 pack 0 50;
#X obj 98 256 line~;
#X obj 179 232 pack 0 50;
#X obj 179 253 line~;
#X obj 113 110 tgl 15 0 empty empty FX 17 7 0 10 -262144 -1 -1 0 1
;
#X obj 234 119 * -1;
#X obj 234 140 + 1;
#X obj 114 133 tgl 15 0 empty empty Clean 17 7 0 10 -262144 -1 -1 1
1;
#X obj 237 62 loadbang;
#X msg 237 83 0;
#X obj 112 61 r drums_fx_clean;
#X connect 1 0 2 0;
#X connect 1 0 4 0;
#X connect 2 0 3 0;
#X connect 4 0 5 0;
#X connect 6 0 7 0;
#X connect 7 0 2 1;
#X connect 8 0 9 0;
#X connect 9 0 4 1;
#X connect 10 0 6 0;
#X connect 10 0 11 0;
#X connect 11 0 12 0;
#X connect 12 0 13 0;
#X connect 13 0 8 0;
#X connect 14 0 15 0;
#X connect 15 0 10 0;
#X connect 16 0 10 0;
#X coords 0 -1 1 1 100 60 2 100 100;
