#N canvas 725 166 535 404 10;
#X obj 101 101 cnv 15 98 58 empty empty empty 20 12 0 14 -36309 -66577
0;
#X obj 47 242 inlet~;
#X obj 105 324 *~;
#X obj 81 372 outlet~;
#X obj 135 325 *~;
#X obj 141 375 outlet~;
#X obj 107 235 pack 0 50;
#X obj 107 256 line~;
#X obj 188 232 pack 0 50;
#X obj 188 253 line~;
#X obj 112 111 tgl 15 0 empty empty Speaker 17 7 0 10 -262144 -1 -1
0 1;
#X obj 248 131 * -1;
#X obj 248 152 + 1;
#X obj 112 133 tgl 15 0 empty empty Transducer 17 7 0 10 -262144 -1
-1 0 1;
#X obj 112 -11 r pedal_data;
#X obj 112 13 route output_routing;
#X obj 112 36 route \$1;
#X text 232 75 Argument decides which instroment group to route;
#X obj 112 58 route speaker transducer;
#X msg 114 79 1;
#X msg 160 79 0;
#X obj 264 233 inlet~;
#X connect 1 0 2 0;
#X connect 1 0 4 0;
#X connect 2 0 3 0;
#X connect 4 0 5 0;
#X connect 6 0 7 0;
#X connect 7 0 2 1;
#X connect 8 0 9 0;
#X connect 9 0 4 1;
#X connect 10 0 6 0;
#X connect 10 0 11 0;
#X connect 11 0 12 0;
#X connect 12 0 13 0;
#X connect 13 0 8 0;
#X connect 14 0 15 0;
#X connect 15 0 16 0;
#X connect 16 0 18 0;
#X connect 18 0 19 0;
#X connect 18 1 20 0;
#X connect 19 0 10 0;
#X connect 20 0 10 0;
#X connect 21 0 4 0;
#X coords 0 -1 1 1 100 60 2 100 100;
