#N canvas 234 218 450 300 12;
#X obj 53 176 inlet~;
#X obj 111 258 *~;
#X obj 87 306 outlet~;
#X obj 141 259 *~;
#X obj 147 309 outlet~;
#X obj 113 169 pack 0 50;
#X obj 113 190 line~;
#X obj 194 166 pack 0 50;
#X obj 194 187 line~;
#X obj 113 106 tgl 15 0 empty empty Speaker -10 25 0 10 -262144 -1
-1 0 1;
#X obj 192 51 * -1;
#X obj 192 72 + 1;
#X obj 146 9 r \$1;
#X obj 173 106 tgl 15 0 empty empty Transducer -21 25 0 10 -262144
-1 -1 0 1;
#X connect 0 0 1 0;
#X connect 0 0 3 0;
#X connect 1 0 2 0;
#X connect 3 0 4 0;
#X connect 5 0 6 0;
#X connect 6 0 1 1;
#X connect 7 0 8 0;
#X connect 8 0 3 1;
#X connect 9 0 5 0;
#X connect 10 0 11 0;
#X connect 11 0 13 0;
#X connect 12 0 9 0;
#X connect 12 0 10 0;
#X connect 13 0 7 0;
#X coords 0 -1 1 1 115 40 2 100 100;
