#N canvas 126 231 652 377 10;
#X obj 119 229 inlet~;
#X obj 63 266 pitchshift;
#X obj 223 113 tgl 15 0 empty empty empty 17 7 0 10 -262144 -1 -1 0
1;
#X obj 223 207 line;
#X obj 222 140 * 2;
#X floatatom 225 230 5 0 0 0 - - -;
#X obj 222 68 tgl 15 0 empty empty empty 17 7 0 10 -262144 -1 -1 0
1;
#X obj 222 162 - 1;
#X obj 60 293 outlet~;
#X obj 46 191 f \$1;
#X obj 29 162 loadbang;
#X obj 53 246 *;
#X obj 112 163 bng 15 250 50 0 empty empty empty 17 7 0 10 -262144
-1 -1;
#X obj 222 90 metro \$2;
#X obj 223 186 pack 0 \$2;
#X obj 173 40 route transposition mod_freq;
#X obj 336 102 == 0;
#X obj 304 211 loadbang;
#X msg 304 232 1;
#X obj 336 123 sel 1;
#X msg 394 182 0;
#X obj 336 144 t b b b;
#X obj 177 -13 r \$3;
#X msg 381 73 something wrong with routing pitch-shifter;
#X obj 381 94 print \$3;
#X msg 400 126 1;
#X obj 506 137 f \$2;
#X obj 509 109 loadbang;
#X obj 506 158 != 0;
#X obj 175 13 route pitch-shifter;
#X floatatom 169 98 5 0 0 0 - - -;
#X obj 55 214 t b f;
#X connect 0 0 1 1;
#X connect 1 0 8 0;
#X connect 2 0 4 0;
#X connect 3 0 5 0;
#X connect 4 0 7 0;
#X connect 5 0 11 0;
#X connect 6 0 13 0;
#X connect 7 0 14 0;
#X connect 9 0 31 0;
#X connect 10 0 9 0;
#X connect 11 0 1 0;
#X connect 12 0 9 0;
#X connect 13 0 2 0;
#X connect 14 0 3 0;
#X connect 15 0 9 0;
#X connect 15 1 13 1;
#X connect 15 1 14 1;
#X connect 15 1 16 0;
#X connect 15 1 30 0;
#X connect 15 1 26 0;
#X connect 15 2 23 0;
#X connect 16 0 19 0;
#X connect 17 0 18 0;
#X connect 18 0 5 0;
#X connect 19 0 21 0;
#X connect 19 1 25 0;
#X connect 20 0 6 0;
#X connect 21 0 18 0;
#X connect 21 1 9 0;
#X connect 21 2 20 0;
#X connect 22 0 29 0;
#X connect 23 0 24 0;
#X connect 26 0 28 0;
#X connect 27 0 26 0;
#X connect 28 0 6 0;
#X connect 29 0 15 0;
#X connect 31 0 11 0;
#X connect 31 1 11 1;
