#N canvas 178 326 590 300 12;
#X obj 370 124 / 127;
#X obj 370 152 oscformat ringthing filterfreq;
#X obj 370 180 s send_osc;
#X obj 389 234 outlet;
#X obj 370 99 ctlin 1 \$1;
#X obj 74 176 oscformat ringthing preset;
#X obj 9 36 ctlin 11;
#X obj 93 36 ctlin 12;
#X obj 181 36 ctlin 13;
#X obj 267 36 ctlin 14;
#X obj 9 60 sel 127;
#X msg 9 84 1 1;
#X msg 62 128 1 0;
#X obj 92 60 sel 127;
#X msg 92 84 2 1;
#X obj 181 60 sel 127;
#X obj 266 60 sel 127;
#X msg 181 84 3 1;
#X msg 266 84 4 1;
#X msg 100 128 2 0;
#X msg 138 127 3 0;
#X msg 176 127 4 0;
#X obj 97 278 tgl 15 0 empty empty empty 17 7 0 10 -262144 -1 -1 0
1;
#X obj 137 279 tgl 15 0 empty empty empty 17 7 0 10 -262144 -1 -1 0
1;
#X obj 177 279 tgl 15 0 empty empty empty 17 7 0 10 -262144 -1 -1 0
1;
#X obj 217 278 tgl 15 0 empty empty empty 17 7 0 10 -262144 -1 -1 0
1;
#X obj 118 227 route 1 2 3 4;
#X connect 0 0 1 0;
#X connect 1 0 2 0;
#X connect 4 0 0 0;
#X connect 4 0 3 0;
#X connect 5 0 2 0;
#X connect 6 0 10 0;
#X connect 7 0 13 0;
#X connect 8 0 15 0;
#X connect 9 0 16 0;
#X connect 10 0 11 0;
#X connect 10 0 19 0;
#X connect 10 0 20 0;
#X connect 10 0 21 0;
#X connect 11 0 5 0;
#X connect 11 0 26 0;
#X connect 12 0 5 0;
#X connect 12 0 26 0;
#X connect 13 0 14 0;
#X connect 13 0 12 0;
#X connect 13 0 20 0;
#X connect 13 0 21 0;
#X connect 14 0 5 0;
#X connect 14 0 26 0;
#X connect 15 0 17 0;
#X connect 15 0 12 0;
#X connect 15 0 19 0;
#X connect 15 0 21 0;
#X connect 16 0 18 0;
#X connect 16 0 12 0;
#X connect 16 0 20 0;
#X connect 16 0 19 0;
#X connect 17 0 5 0;
#X connect 17 0 26 0;
#X connect 18 0 5 0;
#X connect 18 0 26 0;
#X connect 19 0 5 0;
#X connect 19 0 26 0;
#X connect 20 0 5 0;
#X connect 20 0 26 0;
#X connect 21 0 5 0;
#X connect 21 0 26 0;
#X connect 26 0 22 0;
#X connect 26 1 23 0;
#X connect 26 2 24 0;
#X connect 26 3 25 0;
#X coords 0 300 1 299 60 160 0;
