#N canvas 178 326 450 300 12;
#X obj 215 64 / 127;
#X obj 215 92 oscformat ringthing filterfreq;
#X obj 215 120 s send_osc;
#X obj 201 161 outlet;
#X obj 215 39 ctlin 1 \$1;
#X connect 0 0 1 0;
#X connect 1 0 2 0;
#X connect 4 0 0 0;
#X connect 4 0 3 0;
#X coords 0 300 1 299 60 160 0;
