#N canvas 324 214 541 300 10;
#X obj 37 179 inlet~;
#X obj 82 222 *~;
#X obj 82 243 outlet~;
#X obj 119 119 osc~ \$1;
#X obj 104 192 *~ \$2;
#X obj 117 143 *~ 0.5;
#X obj 110 167 +~ 0.5;
#X obj 214 17 r \$3;
#X obj 213 62 route mod_freq depth;
#X msg 330 86 something wrong with routing ring;
#X obj 330 107 print \$3;
#X obj 213 39 route ring;
#X connect 0 0 1 0;
#X connect 1 0 2 0;
#X connect 3 0 5 0;
#X connect 4 0 1 1;
#X connect 5 0 6 0;
#X connect 6 0 4 0;
#X connect 7 0 11 0;
#X connect 8 0 3 0;
#X connect 8 1 4 1;
#X connect 8 2 9 0;
#X connect 9 0 10 0;
#X connect 11 0 8 0;
