#N canvas 543 211 450 300 10;
#X obj 127 277 netsend -u -b;
#X obj 128 230 list prepend send;
#X obj 128 251 list trim;
#X msg 274 242 disconnect;
#X obj 82 107 r send_osc;
#X obj 244 59 symbol \$1;
#X obj 244 35 t b b;
#X obj 230 12 loadbang;
#X msg 231 187 connect \$1 \$2;
#X obj 177 27 bng 15 250 50 0 empty empty empty 17 7 0 10 -262144 -1
-1;
#X obj 230 113 list trim symbol;
#X obj 286 85 f \$2;
#X obj 238 147 pack s f;
#X text 310 57 ip address;
#X text 320 87 port number;
#X connect 1 0 2 0;
#X connect 2 0 0 0;
#X connect 3 0 0 0;
#X connect 4 0 1 0;
#X connect 5 0 10 0;
#X connect 6 0 5 0;
#X connect 6 1 11 0;
#X connect 7 0 6 0;
#X connect 8 0 0 0;
#X connect 9 0 6 0;
#X connect 10 0 12 0;
#X connect 11 0 12 1;
#X connect 12 0 8 0;
