#N canvas 513 366 738 347 10;
#X obj 128 230 list prepend send;
#X obj 128 251 list trim;
#X msg 274 242 disconnect;
#X obj 82 107 r send_osc;
#X obj 244 59 symbol \$1;
#X obj 244 35 t b b;
#X obj 230 12 loadbang;
#X msg 231 187 connect \$1 \$2;
#X obj 177 27 bng 15 250 50 0 empty empty empty 17 7 0 10 -262144 -1
-1;
#X obj 230 113 list trim symbol;
#X obj 286 85 f \$2;
#X obj 238 147 pack s f;
#X text 310 57 ip address;
#X text 320 87 port number;
#X obj 416 37 tgl 15 0 empty empty empty 17 7 0 10 -262144 -1 -1 0
1;
#X obj 441 60 s osc-autotest;
#X text 539 26 Activates the autotest and sends osc messages from alll
the objects at the same time to test the patch, f 25;
#X obj 127 277 netsend;
#X obj 105 168 list trim;
#X obj 440 37 inlet;
#X connect 0 0 1 0;
#X connect 1 0 17 0;
#X connect 2 0 17 0;
#X connect 3 0 18 0;
#X connect 4 0 9 0;
#X connect 5 0 4 0;
#X connect 5 1 10 0;
#X connect 6 0 5 0;
#X connect 7 0 17 0;
#X connect 8 0 5 0;
#X connect 9 0 11 0;
#X connect 10 0 11 1;
#X connect 11 0 7 0;
#X connect 14 0 15 0;
#X connect 18 0 0 0;
#X connect 19 0 15 0;
