#N canvas 509 120 684 499 10;
#X obj 101 101 cnv 15 98 28 empty \$0-show_routing transducer 10 12
0 14 -261689 -66577 0;
#X obj 95 17 sel 127;
#X obj 100 43 tgl 15 0 empty empty empty 17 7 0 10 -262144 -1 -1 0
1;
#X obj 95 -4 ctlin 3 \$1;
#X obj 104 184 sel 1;
#X obj 218 349 s send_osc;
#X obj -88 341 symbol \$0-show_routing;
#X obj -88 362 pack s s;
#X obj -84 316 t b a;
#X msg -87 386 \; \$1 label \$2 \;;
#X msg 90 213 speaker 0;
#X msg 166 214 transducer 1;
#X obj -86 289 list split 1;
#X text 180 7 fetch MIDI control number 3 \, channel in the arguments
, f 28;
#X text 259 214 send speaker or transducer followed by number to make
it easier to use on the receiving side;
#X text 323 355 prepend second argument to route on the receiving side
;
#X text -86 264 set the label on the canvas;
#X text 4 293 split the 0 and 1 (not needed);
#X text 5 367 save the random generated number to adress the canvas
, f 27;
#X text 264 72 Arguments: MIDI Channel number \, name of instrument
(group), f 37;
#X obj 21 -32 r keyboard;
#X obj 21 -10 - 48;
#X obj 21 12 sel \$1;
#X msg 16 450 \; \$1 color 16 12 \;;
#X obj -41 311 sel 0;
#X obj 15 431 symbol \$0-show_routing;
#X obj 19 406 t b;
#X obj 158 430 symbol \$0-show_routing;
#X obj 162 410 t b;
#X msg 159 449 \; \$1 color 3 12 \;;
#X obj 191 -40 r osc-autotest;
#X obj 190 -20 metro 1000;
#X text 290 -39 autotest;
#X msg 278 276 strings transducer bang;
#X obj 218 324 list prepend output_routing \$2;
#X connect 1 0 2 0;
#X connect 2 0 4 0;
#X connect 3 0 1 0;
#X connect 4 0 10 0;
#X connect 4 1 11 0;
#X connect 6 0 7 0;
#X connect 7 0 9 0;
#X connect 8 0 6 0;
#X connect 8 1 7 1;
#X connect 10 0 12 0;
#X connect 10 0 26 0;
#X connect 10 0 34 0;
#X connect 11 0 12 0;
#X connect 11 0 28 0;
#X connect 11 0 34 0;
#X connect 12 0 8 0;
#X connect 12 1 24 0;
#X connect 20 0 21 0;
#X connect 21 0 22 0;
#X connect 22 0 2 0;
#X connect 25 0 23 0;
#X connect 26 0 25 0;
#X connect 27 0 29 0;
#X connect 28 0 27 0;
#X connect 30 0 31 0;
#X connect 31 0 2 0;
#X connect 33 0 5 0;
#X connect 34 0 5 0;
#X coords 0 -1 1 1 100 30 2 100 100;
