#N canvas 222 193 450 300 10;
#X obj 158 128 inlet~;
#X obj 203 171 *~;
#X obj 205 260 outlet~;
#X obj 243 92 osc~ \$1;
#X obj 248 42 route mod_freq depth;
#X obj 230 131 *~ \$2;
#X obj 247 -3 r \$3;
#X obj 247 19 route tremolo;
#X msg 363 74 something wrong routing tremolo;
#X obj 363 95 print \$3;
#X obj 204 230 clip~ -1 1;
#X obj 204 201 *~ 4;
#X connect 0 0 1 0;
#X connect 1 0 11 0;
#X connect 3 0 5 0;
#X connect 4 0 3 0;
#X connect 4 1 5 1;
#X connect 4 2 8 0;
#X connect 5 0 1 1;
#X connect 6 0 7 0;
#X connect 7 0 4 0;
#X connect 8 0 9 0;
#X connect 10 0 2 0;
#X connect 11 0 10 0;
