#N canvas 309 156 705 300 10;
#X obj 101 101 cnv 15 98 58 empty empty empty 20 12 0 14 -16662 -66577
0;
#X obj 283 95 pack 0 20;
#X obj 283 126 line~;
#X obj 243 218 *~;
#X obj 283 73 / 127;
#X obj 216 175 inlet~;
#X obj 243 239 outlet~;
#X obj 104 116 nbx 5 25 -1e+37 1e+37 0 0 empty empty empty 0 -8 0 18
-262130 -1 -1 0 256;
#X obj 513 175 symbol \$2;
#X text 464 44 midi channel as argument;
#X text 515 196 Just a symbol object to hold the name of the instrument
, f 22;
#X obj 283 -15 r pedal_data;
#X obj 283 31 route \$1;
#X obj 283 7 route express;
#X floatatom 233 26 5 0 0 0 - - -;
#X obj 283 52 clip 0 127;
#X obj 204 51 * 0.5;
#X obj 204 72 + 0.5;
#X obj 214 3 r mult;
#X obj 175 24 r add;
#X obj 348 208 *~;
#X obj 365 174 inlet~;
#X obj 348 229 outlet~;
#X connect 1 0 7 0;
#X connect 2 0 3 1;
#X connect 2 0 20 1;
#X connect 3 0 6 0;
#X connect 4 0 16 0;
#X connect 5 0 3 0;
#X connect 7 0 2 0;
#X connect 11 0 13 0;
#X connect 12 0 15 0;
#X connect 13 0 12 0;
#X connect 14 0 4 0;
#X connect 15 0 4 0;
#X connect 16 0 17 0;
#X connect 17 0 1 0;
#X connect 18 0 16 1;
#X connect 19 0 17 1;
#X connect 20 0 22 0;
#X connect 21 0 20 0;
#X coords 0 -1 1 1 100 60 2 100 100;
