#N canvas 309 156 705 300 10;
#X obj 101 101 cnv 15 98 58 empty empty empty 20 12 0 14 -16662 -66577
0;
#X obj 283 95 pack 0 20;
#X obj 283 126 line~;
#X obj 243 218 *~;
#X obj 283 73 / 127;
#X obj 216 175 inlet~;
#X obj 243 239 outlet~;
#X obj 104 116 nbx 5 25 -1e+37 1e+37 0 0 empty empty empty 0 -8 0 18
-262130 -1 -1 1 256;
#X obj 322 178 symbol \$2;
#X text 464 44 midi channel as argument;
#X text 324 199 Just a symbol object to hold the name of the instrument
, f 22;
#X obj 283 3 r pedal_data;
#X obj 283 49 route \$1;
#X obj 283 25 route express;
#X connect 1 0 7 0;
#X connect 2 0 3 1;
#X connect 3 0 6 0;
#X connect 4 0 1 0;
#X connect 5 0 3 0;
#X connect 7 0 2 0;
#X connect 11 0 13 0;
#X connect 12 0 4 0;
#X connect 13 0 12 0;
#X coords 0 -1 1 1 100 60 2 100 100;
