#N canvas 199 191 450 300 10;
#X obj 18 109 inlet~;
#X obj 59 232 +~;
#X obj 59 253 outlet~;
#X obj 90 102 osc~ \$1;
#X obj 90 123 *~ \$2;
#X obj 91 144 +~ \$3;
#X obj 63 172 vcf~ \$4;
#X obj 33 48 route mod_freq depth center_freq q dry_wet;
#X obj 280 95 print \$5;
#X msg 280 74 something wrong with wahwha routing;
#X obj 72 209 *~ \$5;
#X obj 33 27 r \$6;
#X connect 0 0 6 0;
#X connect 0 0 10 0;
#X connect 1 0 2 0;
#X connect 3 0 4 0;
#X connect 4 0 5 0;
#X connect 5 0 6 1;
#X connect 6 0 1 0;
#X connect 7 0 3 0;
#X connect 7 1 4 1;
#X connect 7 2 5 1;
#X connect 7 3 6 2;
#X connect 7 4 10 1;
#X connect 7 5 9 0;
#X connect 9 0 8 0;
#X connect 10 0 1 1;
#X connect 11 0 7 0;
