#N canvas 650 161 450 300 10;
#X obj 141 59 inlet~;
#X obj 182 182 +~;
#X obj 182 203 outlet~;
#X obj 213 52 osc~ 10;
#X obj 213 94 +~ 5000;
#X obj 213 73 *~ 200;
#X obj 186 122 vcf~ 10;
#X obj 195 159 *~ 0.2;
#X connect 0 0 6 0;
#X connect 0 0 7 0;
#X connect 1 0 2 0;
#X connect 3 0 5 0;
#X connect 4 0 6 1;
#X connect 5 0 4 0;
#X connect 6 0 1 0;
#X connect 7 0 1 1;
