#N canvas 197 55 775 572 10;
#X obj 291 208 adc~ 1;
#N canvas 0 22 450 300 FX 1;
#X obj 37 37 inlet~;
#X obj 37 58 *~;
#X obj 37 79 outlet~;
#X connect 0 0 1 0;
#X connect 1 0 2 0;
#X restore 291 229 pd FX;
#N canvas 0 22 450 300 output_routing 1;
#X obj 139 128 inlet~;
#X obj 197 210 *~;
#X obj 173 258 outlet~;
#X obj 227 211 *~;
#X obj 233 261 outlet~;
#X obj 213 119 pack 0 50;
#X obj 213 140 line~;
#X obj 280 118 pack 0 50;
#X obj 280 139 line~;
#X obj 218 51 tgl 15 0 empty empty empty 17 7 0 10 -262144 -1 -1 0
1;
#X obj 281 76 * -1;
#X obj 281 97 + 1;
#X obj 307 33 r instrument;
#X connect 0 0 1 0;
#X connect 0 0 3 0;
#X connect 1 0 2 0;
#X connect 3 0 4 0;
#X connect 5 0 6 0;
#X connect 6 0 1 1;
#X connect 7 0 8 0;
#X connect 8 0 3 1;
#X connect 9 0 5 0;
#X connect 9 0 10 0;
#X connect 10 0 11 0;
#X connect 11 0 7 0;
#X connect 12 0 9 0;
#X restore 291 250 pd output_routing;
#X connect 0 0 1 0;
