#N canvas 284 85 768 344 10;
#X declare -path abstractions;
#N canvas 501 74 779 455 expression 0;
#X obj 24 181 ctlin 7 1;
#X obj 102 182 ctlin 7 2;
#X obj 169 182 ctlin 7 3;
#X obj 246 183 ctlin 7 4;
#X obj 312 184 ctlin 7 5;
#X obj 389 185 ctlin 7 6;
#X obj 457 185 ctlin 7 7;
#X obj 534 186 ctlin 7 8;
#X floatatom 25 213 5 0 0 0 - - -;
#X floatatom 100 212 5 0 0 0 - - -;
#X floatatom 172 211 5 0 0 0 - - -;
#X floatatom 246 212 5 0 0 0 - - -;
#X floatatom 314 212 5 0 0 0 - - -;
#X floatatom 389 212 5 0 0 0 - - -;
#X floatatom 461 211 5 0 0 0 - - -;
#X floatatom 533 212 5 0 0 0 - - -;
#X obj 24 242 oscformat express one;
#X obj 90 265 oscformat express two;
#X obj 165 240 oscformat express three;
#X obj 243 265 oscformat express four;
#X obj 311 239 oscformat express five;
#X obj 395 265 oscformat express six;
#X obj 459 237 oscformat express seven;
#X obj 531 263 oscformat express eight;
#X obj 291 387 s send_osc;
#X text 606 185 read pedal inputs;
#X text 672 234 convert midi to osc message, f 16;
#X obj 173 9 r osc-autotest;
#X obj 173 30 metro 500;
#X obj 173 51 tgl 15 0 empty empty empty 17 7 0 10 -262144 -1 -1 0
1;
#X obj 173 71 * 127;
#X obj 173 92 pack 0 500;
#X obj 173 113 line;
#X text 243 35 Autotest osc \, send from all objects at the same time
to test the patch, f 22;
#X connect 0 0 8 0;
#X connect 1 0 9 0;
#X connect 2 0 10 0;
#X connect 3 0 11 0;
#X connect 4 0 12 0;
#X connect 5 0 13 0;
#X connect 6 0 14 0;
#X connect 7 0 15 0;
#X connect 8 0 16 0;
#X connect 9 0 17 0;
#X connect 10 0 18 0;
#X connect 11 0 19 0;
#X connect 12 0 20 0;
#X connect 13 0 21 0;
#X connect 14 0 22 0;
#X connect 15 0 23 0;
#X connect 16 0 24 0;
#X connect 17 0 24 0;
#X connect 18 0 24 0;
#X connect 19 0 24 0;
#X connect 20 0 24 0;
#X connect 21 0 24 0;
#X connect 22 0 24 0;
#X connect 23 0 24 0;
#X connect 27 0 28 0;
#X connect 28 0 29 0;
#X connect 29 0 30 0;
#X connect 30 0 31 0;
#X connect 31 0 32 0;
#X connect 32 0 8 0;
#X connect 32 0 9 0;
#X connect 32 0 15 0;
#X connect 32 0 14 0;
#X connect 32 0 13 0;
#X connect 32 0 12 0;
#X connect 32 0 11 0;
#X connect 32 0 10 0;
#X restore 11 233 pd expression;
#X obj 195 35 cnv 15 100 30 empty empty Strings 20 12 0 14 -224523
-66577 0;
#X obj 10 287 declare -path abstractions;
#X obj 309 36 cnv 15 100 30 empty empty Drums 25 12 0 14 -203904 -66577
0;
#X obj 424 36 cnv 15 100 30 empty empty Piano 25 12 0 14 -260097 -66577
0;
#X obj 536 36 cnv 15 100 30 empty empty Winds 25 12 0 14 -204786 -66577
0;
#N canvas 5 72 736 433 fx_pedal 0;
#X obj 25 180 ctlin 1 1;
#X obj 25 204 sel 127;
#X obj 102 205 sel 127;
#X obj 102 181 ctlin 1 2;
#X obj 171 206 sel 127;
#X obj 247 206 sel 127;
#X obj 313 207 sel 127;
#X obj 390 208 sel 127;
#X obj 458 208 sel 127;
#X obj 535 209 sel 127;
#X obj 25 228 tgl 15 0 empty empty empty 17 7 0 10 -262144 -1 -1 0
1;
#X obj 103 234 tgl 15 0 empty empty empty 17 7 0 10 -262144 -1 -1 0
1;
#X obj 173 233 tgl 15 0 empty empty empty 17 7 0 10 -262144 -1 -1 0
1;
#X obj 249 234 tgl 15 0 empty empty empty 17 7 0 10 -262144 -1 -1 0
1;
#X obj 315 234 tgl 15 0 empty empty empty 17 7 0 10 -262144 -1 -1 0
1;
#X obj 391 234 tgl 15 0 empty empty empty 17 7 0 10 -262144 -1 -1 0
1;
#X obj 460 234 tgl 15 0 empty empty empty 17 7 0 10 -262144 -1 -1 0
1;
#X obj 536 235 tgl 15 0 empty empty empty 17 7 0 10 -262144 -1 -1 0
1;
#X obj 170 181 ctlin 1 3;
#X obj 247 182 ctlin 1 4;
#X obj 313 183 ctlin 1 5;
#X obj 390 184 ctlin 1 6;
#X obj 458 184 ctlin 1 7;
#X obj 535 185 ctlin 1 8;
#X obj 290 405 s send_osc;
#X obj 23 260 oscformat fx_pedal one;
#X obj 89 283 oscformat fx_pedal two;
#X obj 164 258 oscformat fx_pedal three;
#X obj 242 283 oscformat fx_pedal four;
#X obj 310 257 oscformat fx_pedal five;
#X obj 394 283 oscformat fx_pedal six;
#X obj 458 255 oscformat fx_pedal seven;
#X obj 530 281 oscformat fx_pedal eight;
#X obj 192 46 r osc-autotest;
#X obj 192 67 metro 500;
#X obj 192 90 tgl 15 0 empty empty empty 17 7 0 10 -262144 -1 -1 0
1;
#X text 284 41 Autotest osc \, send from all objects at the same time
to test the patch, f 22;
#X connect 0 0 1 0;
#X connect 1 0 10 0;
#X connect 2 0 11 0;
#X connect 3 0 2 0;
#X connect 4 0 12 0;
#X connect 5 0 13 0;
#X connect 6 0 14 0;
#X connect 7 0 15 0;
#X connect 8 0 16 0;
#X connect 9 0 17 0;
#X connect 10 0 25 0;
#X connect 11 0 26 0;
#X connect 12 0 27 0;
#X connect 13 0 28 0;
#X connect 14 0 29 0;
#X connect 15 0 30 0;
#X connect 16 0 31 0;
#X connect 17 0 32 0;
#X connect 18 0 4 0;
#X connect 19 0 5 0;
#X connect 20 0 6 0;
#X connect 21 0 7 0;
#X connect 22 0 8 0;
#X connect 23 0 9 0;
#X connect 25 0 24 0;
#X connect 26 0 24 0;
#X connect 27 0 24 0;
#X connect 28 0 24 0;
#X connect 29 0 24 0;
#X connect 30 0 24 0;
#X connect 31 0 24 0;
#X connect 32 0 24 0;
#X connect 33 0 34 0;
#X connect 34 0 35 0;
#X connect 35 0 10 0;
#X connect 35 0 17 0;
#X connect 35 0 16 0;
#X connect 35 0 15 0;
#X connect 35 0 14 0;
#X connect 35 0 13 0;
#X connect 35 0 12 0;
#X connect 35 0 11 0;
#X restore 11 205 pd fx_pedal;
#X obj 197 78 switcher_stage 1 strings;
#N canvas 176 88 653 506 osc-in 0;
#X obj 29 156 netreceive -u -b;
#X obj 29 180 oscparse;
#X obj 29 203 route list;
#X msg 29 132 listen 9001;
#X obj 29 224 route wii;
#X obj 30 249 route accel button;
#X obj 252 227 route one two A;
#X obj 30 298 route pitch roll yaw accel;
#X floatatom 27 327 5 0 0 0 - - -;
#X floatatom 66 328 5 0 0 0 - - -;
#X floatatom 106 329 5 0 0 0 - - -;
#X floatatom 146 329 5 0 0 0 - - -;
#X obj 252 253 tgl 15 0 empty empty empty 17 7 0 10 -262144 -1 -1 0
1;
#X obj 284 254 tgl 15 0 empty empty empty 17 7 0 10 -262144 -1 -1 0
1;
#X obj 314 254 tgl 15 0 empty empty empty 17 7 0 10 -262144 -1 -1 0
1;
#X obj 3 354 oscformat wii pitch;
#X obj 66 376 oscformat wii roll;
#X obj 127 354 oscformat wii yaw;
#X obj 187 376 oscformat wii accel;
#X obj 232 290 oscformat wii button one;
#X obj 261 311 oscformat wii button two;
#X obj 287 333 oscformat wii button A;
#X obj 167 53 r osc-autotest;
#X obj 167 95 tgl 15 0 empty empty empty 17 7 0 10 -262144 -1 -1 0
1;
#X obj 167 157 line;
#X obj 167 74 metro 300;
#X obj 167 136 pack 0 300;
#X obj 167 115 * 1207;
#X text 268 67 Autotest osc \, send from all objects at the same time
to test the patch, f 22;
#X connect 0 0 1 0;
#X connect 1 0 2 0;
#X connect 2 0 4 0;
#X connect 3 0 0 0;
#X connect 4 0 5 0;
#X connect 5 0 7 0;
#X connect 5 1 6 0;
#X connect 6 0 12 0;
#X connect 6 1 13 0;
#X connect 6 2 14 0;
#X connect 7 0 8 0;
#X connect 7 1 9 0;
#X connect 7 2 10 0;
#X connect 7 3 11 0;
#X connect 8 0 15 0;
#X connect 9 0 16 0;
#X connect 10 0 17 0;
#X connect 11 0 18 0;
#X connect 12 0 19 0;
#X connect 13 0 20 0;
#X connect 14 0 21 0;
#X connect 22 0 25 0;
#X connect 23 0 27 0;
#X connect 24 0 8 0;
#X connect 24 0 11 0;
#X connect 24 0 10 0;
#X connect 24 0 9 0;
#X connect 25 0 23 0;
#X connect 25 0 12 0;
#X connect 25 0 14 0;
#X connect 25 0 13 0;
#X connect 26 0 24 0;
#X connect 27 0 26 0;
#X restore 11 315 pd osc-in;
#X obj 311 80 switcher_stage 2 drums;
#X obj 425 80 switcher_stage 3 piano;
#X obj 537 78 switcher_stage 4 winds;
#X obj 389 167 key;
#X obj 389 188 spigot;
#X obj 389 209 s keyboard;
#X obj 422 164 tgl 15 0 empty empty empty 17 7 0 10 -262144 -1 -1 0
1;
#X text 442 163 <- Activate Keyboard Input;
#N canvas 671 114 450 300 more-osc-autotest 0;
#X obj 45 22 r osc-autotest;
#X obj 45 64 tgl 15 0 empty empty empty 17 7 0 10 -262144 -1 -1 0 1
;
#X obj 45 126 line;
#X obj 45 43 metro 300;
#X obj 45 105 pack 0 300;
#X obj 45 84 * 1207;
#X connect 0 0 3 0;
#X connect 1 0 5 0;
#X connect 3 0 1 0;
#X connect 4 0 2 0;
#X connect 5 0 4 0;
#X restore 11 180 pd more-osc-autotest;
#X obj 10 256 stage-osc-out 192.168.178.22 8001;
#X connect 12 0 13 0;
#X connect 13 0 14 0;
#X connect 15 0 13 1;
