#N canvas 103 59 1049 572 10;
#X declare -path abstractions;
#X obj 22 474 declare -path abstractions;
#X obj 17 63 adc~ 1;
#N canvas 335 35 864 543 FX 0;
#X obj 37 37 inlet~;
#X obj 37 58 *~;
#X obj 37 79 outlet~;
#X obj 29 299 s violine;
#X floatatom 49 257 5 0 0 0 - - -;
#X obj 656 151 arctan_distortion 10 0.7 violine;
#X obj 235 118 readsf~;
#X obj 224 381 output~;
#X obj 114 174 noise~;
#X obj 657 174 ring 50 0.5 violine;
#X obj 658 198 pitch-shifter 2 1000 violine;
#X obj 658 222 harmonizer 0 0 0 5 violine;
#X obj 659 248 gs~ 2000 30 0 violine;
#X obj 655 103 chorus 4 3 2 8 0.5 0.8 0.6 0.9 violine;
#X obj 656 128 tremolo 5 0.5 violine;
#X msg 272 57 open audio/sax-jazz.wav \, start;
#X msg 145 9 open audio/voice.wav \, start;
#X obj 656 77 flanger 1 3 0.7 violine;
#X obj 314 217 compressor~ -30 40 40 0 0 0;
#X obj 356 294 *~;
#X obj 387 299 *~;
#X obj 354 95 tgl 15 0 empty empty empty 17 7 0 10 -262144 -1 -1 0
1;
#X obj 354 115 pack 0 20;
#X obj 354 136 line~;
#X obj 354 157 *~ -1;
#X obj 354 178 +~ 1;
#X msg 462 164 threshold \$1;
#X floatatom 455 133 5 0 0 0 - - -;
#X obj 375 25 bng 15 250 50 0 empty empty empty 17 7 0 10 -262144 -1
-1;
#X obj 479 55 spigot;
#X obj 508 26 tgl 15 0 empty empty empty 17 7 0 10 -262144 -1 -1 0
1;
#X obj 657 276 delayFX 100 50 violine;
#X obj 74 116 channelstrip;
#X connect 0 0 1 0;
#X connect 1 0 2 0;
#X connect 4 0 3 0;
#X connect 6 1 29 0;
#X connect 15 0 6 0;
#X connect 16 0 6 0;
#X connect 19 0 7 0;
#X connect 19 0 7 1;
#X connect 20 0 7 0;
#X connect 20 0 7 1;
#X connect 21 0 22 0;
#X connect 22 0 23 0;
#X connect 23 0 24 0;
#X connect 24 0 25 0;
#X connect 26 0 18 1;
#X connect 27 0 26 0;
#X connect 28 0 15 0;
#X connect 29 0 28 0;
#X connect 30 0 29 1;
#X restore 22 528 pd FX;
#X obj 19 22 cnv 15 100 30 empty empty Violine 20 12 0 14 -224523 -66577
0;
#N canvas 170 346 762 300 osc-in 0;
#X obj 241 22 netreceive -u -b;
#X obj 241 46 oscparse;
#X obj 241 67 route list;
#X floatatom 44 209 5 0 0 0 - - -;
#X obj 68 172 route one two three four five six seven eight;
#X floatatom 89 211 5 0 0 0 - - -;
#X floatatom 133 211 5 0 0 0 - - -;
#X floatatom 176 212 5 0 0 0 - - -;
#X floatatom 221 210 5 0 0 0 - - -;
#X floatatom 266 212 5 0 0 0 - - -;
#X floatatom 310 212 5 0 0 0 - - -;
#X floatatom 353 213 5 0 0 0 - - -;
#X floatatom 405 212 5 0 0 0 - - -;
#X obj 429 175 route one two three four five six seven eight;
#X floatatom 450 214 5 0 0 0 - - -;
#X floatatom 494 214 5 0 0 0 - - -;
#X floatatom 537 215 5 0 0 0 - - -;
#X floatatom 582 213 5 0 0 0 - - -;
#X floatatom 627 215 5 0 0 0 - - -;
#X floatatom 671 215 5 0 0 0 - - -;
#X floatatom 714 216 5 0 0 0 - - -;
#X obj 240 127 route express fx_pedal output_routing;
#X obj 510 82 route strings percussion piano winds;
#X obj 510 103 print;
#X obj 53 234 s one;
#X obj 240 97 s pedal_data;
#X msg 241 -2 listen 9006;
#X obj 146 4 loadbang;
#X connect 0 0 1 0;
#X connect 1 0 2 0;
#X connect 2 0 25 0;
#X connect 4 0 3 0;
#X connect 4 0 24 0;
#X connect 4 1 5 0;
#X connect 4 2 6 0;
#X connect 4 3 7 0;
#X connect 4 4 8 0;
#X connect 4 5 9 0;
#X connect 4 6 10 0;
#X connect 4 7 11 0;
#X connect 13 0 12 0;
#X connect 13 1 14 0;
#X connect 13 2 15 0;
#X connect 13 3 16 0;
#X connect 13 4 17 0;
#X connect 13 5 18 0;
#X connect 13 6 19 0;
#X connect 13 7 20 0;
#X connect 21 0 4 0;
#X connect 21 1 13 0;
#X connect 21 2 22 0;
#X connect 22 0 23 0;
#X connect 26 0 0 0;
#X connect 27 0 26 0;
#X restore 21 500 pd osc-in;
#X obj 139 22 cnv 15 100 30 empty empty Viola 25 12 0 14 -224523 -66577
0;
#X obj 259 22 cnv 15 100 30 empty empty Cello 25 12 0 14 -224523 -66577
0;
#X obj 379 22 cnv 15 100 30 empty empty Piano 25 12 0 14 -224523 -66577
0;
#X obj 499 22 cnv 15 100 30 empty empty Drums 30 12 0 14 -224523 -66577
0;
#X obj 619 22 cnv 15 100 30 empty empty Sax 35 12 0 14 -224523 -66577
0;
#X obj 739 22 cnv 15 100 30 empty empty Oboe 30 12 0 14 -224523 -66577
0;
#X obj 859 22 cnv 15 100 30 empty empty Clarinet 20 12 0 14 -224523
-66577 0;
#X obj 16 201 volume one;
#X obj 16 90 input_routing one violne;
#X obj 16 270 output_routing strings;
#X obj 629 90 input_routing six sax;
#X obj 628 201 volume six;
#X obj 632 161 FX_winds sax del+rev ring+dist;
#X obj 743 90 input_routing seven oboe;
#X obj 745 161 FX_winds oboe del+rev ring+dist;
#N canvas 241 250 450 300 INIT 0;
#X msg 12 17 \; sax reverb 40 \; sax delay 100 \; sax mod_freq 100
\; sax depth 1 \; sax gain 10 \; sax select_fx del+rev \;;
#X msg 13 121 \; oboe reverb 45 \; oboe delay 120 \; oboe mod_freq
120 \; oboe depth 2 \; oboe gain 15 \; oboe select_fx del+rev \;;
#X msg 174 15 \; clarinet reverb 30 \; clarinet delay 80 \; clarinet
mod_freq 60 \; clarinet depth 0.8 \; clarinet gain 18 \; clarinet select_fx
del+rev \;;
#X restore 288 509 pd INIT;
#X obj 856 90 input_routing eight clarinet;
#X obj 744 201 volume seven;
#X obj 859 201 volume eight;
#X obj 866 161 FX_winds clarinet del+rev ring+dist;
#X obj 14 161 FX_violine violine;
#X obj 129 90 input_routing two viola;
#X obj 129 161 FX_viola viola;
#X obj 128 201 volume two;
#X obj 240 161 FX_cello cello;
#X obj 242 90 input_routing three cello;
#X obj 242 201 volume three;
#X obj 244 270 output_routing strings;
#X obj 628 270 output_routing winds;
#X obj 744 270 output_routing winds;
#X obj 863 270 output_routing winds;
#X obj 130 270 output_routing strings;
#X obj 511 201 volume five;
#X obj 512 270 output_routing drums;
#X obj 509 161 FX_drums drums chorus flanger gs;
#N canvas 4 30 534 408 wii 0;
#X obj 34 83 r pedal_data;
#X obj 34 109 route wii;
#X obj 35 158 route pitch roll yaw accel;
#X obj 220 162 route one two A;
#X obj 220 188 tgl 15 0 empty empty empty 17 7 0 10 -262144 -1 -1 1
1;
#X obj 252 189 tgl 15 0 empty empty empty 17 7 0 10 -262144 -1 -1 0
1;
#X obj 282 189 tgl 15 0 empty empty empty 17 7 0 10 -262144 -1 -1 0
1;
#X floatatom 31 188 5 0 0 0 - - -;
#X floatatom 76 189 5 0 0 0 - - -;
#X floatatom 117 189 5 0 0 0 - - -;
#X floatatom 158 189 5 0 0 0 - - -;
#X obj 216 139 route button;
#X obj 19 262 > 0.7;
#X obj 19 283 s drums_fx_clean;
#X obj 220 218 sel 1;
#X obj 220 239 t b b;
#X msg 220 260 0;
#X msg 219 281 \; drums select_fx chorus \;;
#X msg 285 313 \; drums select_fx flanger \;;
#X msg 323 347 \; drums select_fx gs \;;
#X obj 258 218 sel 1;
#X obj 258 239 t b b;
#X msg 258 260 0;
#X obj 296 218 sel 1;
#X obj 296 239 t b b;
#X msg 296 260 0;
#N canvas 343 202 450 300 drums_fx_modulation 0;
#X obj 171 4 inlet;
#X msg 17 117 \; drums flanger freq_mod \$1 \;;
#X obj 17 75 * 40;
#X obj 17 96 + 20;
#X obj 71 71 * 1000;
#X obj 71 92 + 1000;
#X msg 71 151 \; drums granular signal \$1 \;;
#X obj 236 73 * 10;
#X obj 236 94 + 5;
#X obj 271 94 + 5;
#X obj 271 73 * 8;
#X obj 300 73 * 2;
#X obj 300 94 + 3;
#X obj 327 73 * 7;
#X obj 327 94 + 8;
#X msg 236 115 \; drums chorus mod_freq v1 \$1 \;;
#X msg 271 147 \; drums chorus mod_freq v2 \$1 \;;
#X msg 300 179 \; drums chorus mod_freq v2 \$1 \;;
#X msg 327 211 \; drums chorus mod_freq v2 \$1 \;;
#X connect 0 0 2 0;
#X connect 0 0 4 0;
#X connect 0 0 7 0;
#X connect 0 0 10 0;
#X connect 0 0 11 0;
#X connect 0 0 13 0;
#X connect 2 0 3 0;
#X connect 3 0 1 0;
#X connect 4 0 5 0;
#X connect 5 0 6 0;
#X connect 7 0 8 0;
#X connect 8 0 15 0;
#X connect 9 0 16 0;
#X connect 10 0 9 0;
#X connect 11 0 12 0;
#X connect 12 0 17 0;
#X connect 13 0 14 0;
#X connect 14 0 18 0;
#X restore 76 221 pd drums_fx_modulation;
#X connect 0 0 1 0;
#X connect 1 0 2 0;
#X connect 1 0 11 0;
#X connect 2 0 7 0;
#X connect 2 1 8 0;
#X connect 2 2 9 0;
#X connect 2 3 10 0;
#X connect 3 0 4 0;
#X connect 3 1 5 0;
#X connect 3 2 6 0;
#X connect 4 0 14 0;
#X connect 5 0 20 0;
#X connect 6 0 23 0;
#X connect 7 0 12 0;
#X connect 8 0 26 0;
#X connect 11 0 3 0;
#X connect 12 0 13 0;
#X connect 14 0 15 0;
#X connect 15 0 16 0;
#X connect 15 1 17 0;
#X connect 16 0 5 0;
#X connect 16 0 6 0;
#X connect 20 0 21 0;
#X connect 21 0 22 0;
#X connect 21 1 18 0;
#X connect 22 0 4 0;
#X connect 22 0 6 0;
#X connect 23 0 24 0;
#X connect 24 0 25 0;
#X connect 24 1 19 0;
#X connect 25 0 5 0;
#X connect 25 0 4 0;
#X restore 21 451 pd wii;
#X obj 512 90 input_routing_drums;
#X obj 376 161 FX_piano piano ring freqmod;
#X obj 378 90 input_routing four piano;
#X obj 374 201 volume four;
#X obj 373 270 output_routing piano;
#N canvas 229 62 473 533 winds_fx_select 0;
#X obj 166 162 r pedal_data;
#X obj 166 182 route winds_FX;
#X obj 166 203 sel 1;
#X msg 263 277 \; sax select_fx ring+dist \;;
#X msg 74 276 \; sax select_fx del+rev \;;
#X msg 74 309 \; oboe select_fx del+rev \;;
#X msg 263 310 \; oboe select_fx ring+dist \;;
#X msg 74 342 \; clarinet select_fx del+rev \;;
#X msg 263 343 \; clarinet select_fx ring+dist \;;
#X obj 305 201 print;
#X connect 0 0 9 0;
#X connect 0 0 1 0;
#X connect 1 0 2 0;
#X connect 2 0 4 0;
#X connect 2 0 5 0;
#X connect 2 0 7 0;
#X connect 2 1 3 0;
#X connect 2 1 6 0;
#X connect 2 1 8 0;
#X restore 20 551 pd winds_fx_select;
#X obj 20 355 dac~ 1 2 3 4 5 6 7 8 9 10 11 12 13 14 15 16, f 157;
#X obj 134 63 adc~ 2;
#X obj 242 63 adc~ 3;
#X obj 379 63 adc~ 4;
#X obj 498 63 adc~ 5;
#X obj 618 63 adc~ 6;
#X obj 739 63 adc~ 7;
#X obj 859 63 adc~ 8;
#X connect 1 0 13 0;
#X connect 12 0 14 0;
#X connect 13 0 25 0;
#X connect 13 1 12 0;
#X connect 14 0 47 0;
#X connect 14 1 47 1;
#X connect 15 0 17 0;
#X connect 15 1 16 0;
#X connect 16 0 33 0;
#X connect 17 0 16 0;
#X connect 18 0 19 0;
#X connect 18 1 22 0;
#X connect 19 0 22 0;
#X connect 21 0 24 0;
#X connect 21 1 23 0;
#X connect 22 0 34 0;
#X connect 23 0 35 0;
#X connect 24 0 23 0;
#X connect 25 0 12 0;
#X connect 26 0 27 0;
#X connect 26 1 28 0;
#X connect 27 0 28 0;
#X connect 28 0 36 0;
#X connect 29 0 31 0;
#X connect 30 0 29 0;
#X connect 30 1 31 0;
#X connect 31 0 32 0;
#X connect 32 0 47 4;
#X connect 32 1 47 5;
#X connect 33 0 47 10;
#X connect 33 1 47 11;
#X connect 34 0 47 12;
#X connect 34 1 47 13;
#X connect 35 0 47 14;
#X connect 35 1 47 15;
#X connect 36 0 47 2;
#X connect 36 1 47 3;
#X connect 37 0 38 0;
#X connect 38 0 47 8;
#X connect 38 1 47 9;
#X connect 39 0 37 0;
#X connect 41 0 39 0;
#X connect 41 1 37 0;
#X connect 42 0 44 0;
#X connect 43 0 42 0;
#X connect 43 1 44 0;
#X connect 44 0 45 0;
#X connect 45 0 47 6;
#X connect 45 1 47 7;
#X connect 48 0 26 0;
#X connect 49 0 30 0;
#X connect 50 0 43 0;
#X connect 51 0 41 0;
#X connect 52 0 15 0;
#X connect 53 0 18 0;
#X connect 54 0 21 0;
