#N canvas 110 158 768 344 10;
#X declare -path abstractions;
#X declare -path audio;
#N canvas 298 258 779 455 expression 0;
#X floatatom 25 213 5 0 0 0 - - -;
#X floatatom 100 212 5 0 0 0 - - -;
#X floatatom 172 211 5 0 0 0 - - -;
#X floatatom 246 212 5 0 0 0 - - -;
#X floatatom 314 212 5 0 0 0 - - -;
#X floatatom 389 212 5 0 0 0 - - -;
#X floatatom 461 211 5 0 0 0 - - -;
#X floatatom 533 212 5 0 0 0 - - -;
#X obj 24 242 oscformat express one;
#X obj 90 265 oscformat express two;
#X obj 165 240 oscformat express three;
#X obj 243 265 oscformat express four;
#X obj 311 239 oscformat express five;
#X obj 395 265 oscformat express six;
#X obj 459 237 oscformat express seven;
#X obj 531 263 oscformat express eight;
#X obj 291 387 s send_osc;
#X text 606 185 read pedal inputs;
#X text 672 234 convert midi to osc message, f 16;
#X obj 173 9 r osc-autotest;
#X obj 173 30 metro 500;
#X obj 173 51 tgl 15 0 empty empty empty 17 7 0 10 -262144 -1 -1 0
1;
#X obj 173 71 * 127;
#X obj 173 92 pack 0 500;
#X obj 173 113 line;
#X text 243 35 Autotest osc \, send from all objects at the same time
to test the patch, f 22;
#X obj 24 181 ctlin 7 17;
#X obj 102 182 ctlin 7 18;
#X obj 169 182 ctlin 7 19;
#X obj 246 183 ctlin 7 20;
#X obj 312 184 ctlin 7 37;
#X obj 389 185 ctlin 7 38;
#X obj 457 185 ctlin 7 39;
#X obj 534 186 ctlin 7 40;
#X connect 0 0 8 0;
#X connect 1 0 9 0;
#X connect 2 0 10 0;
#X connect 3 0 11 0;
#X connect 4 0 12 0;
#X connect 5 0 13 0;
#X connect 6 0 14 0;
#X connect 7 0 15 0;
#X connect 8 0 16 0;
#X connect 9 0 16 0;
#X connect 10 0 16 0;
#X connect 11 0 16 0;
#X connect 12 0 16 0;
#X connect 13 0 16 0;
#X connect 14 0 16 0;
#X connect 15 0 16 0;
#X connect 19 0 20 0;
#X connect 20 0 21 0;
#X connect 21 0 22 0;
#X connect 22 0 23 0;
#X connect 23 0 24 0;
#X connect 24 0 0 0;
#X connect 24 0 1 0;
#X connect 24 0 7 0;
#X connect 24 0 6 0;
#X connect 24 0 5 0;
#X connect 24 0 4 0;
#X connect 24 0 3 0;
#X connect 24 0 2 0;
#X connect 26 0 0 0;
#X connect 27 0 1 0;
#X connect 28 0 2 0;
#X connect 29 0 3 0;
#X connect 30 0 4 0;
#X connect 31 0 5 0;
#X connect 32 0 6 0;
#X connect 33 0 7 0;
#X restore 11 233 pd expression;
#X obj 195 35 cnv 15 100 30 empty empty Strings 20 12 0 14 -224523
-66577 0;
#X obj 309 36 cnv 15 100 30 empty empty Drums 25 12 0 14 -203904 -66577
0;
#X obj 424 36 cnv 15 100 30 empty empty Piano 25 12 0 14 -260097 -66577
0;
#X obj 536 36 cnv 15 100 30 empty empty Winds 25 12 0 14 -204786 -66577
0;
#N canvas 436 61 736 433 fx_pedal 0;
#X obj 25 180 ctlin 1 1;
#X obj 25 204 sel 127;
#X obj 102 205 sel 127;
#X obj 102 181 ctlin 1 2;
#X obj 171 206 sel 127;
#X obj 247 206 sel 127;
#X obj 313 207 sel 127;
#X obj 390 208 sel 127;
#X obj 458 208 sel 127;
#X obj 535 209 sel 127;
#X obj 25 228 tgl 15 0 empty empty empty 17 7 0 10 -262144 -1 -1 0
1;
#X obj 103 234 tgl 15 0 empty empty empty 17 7 0 10 -262144 -1 -1 0
1;
#X obj 173 233 tgl 15 0 empty empty empty 17 7 0 10 -262144 -1 -1 0
1;
#X obj 249 234 tgl 15 0 empty empty empty 17 7 0 10 -262144 -1 -1 0
1;
#X obj 315 234 tgl 15 0 empty empty empty 17 7 0 10 -262144 -1 -1 0
1;
#X obj 391 234 tgl 15 0 empty empty empty 17 7 0 10 -262144 -1 -1 0
1;
#X obj 460 234 tgl 15 0 empty empty empty 17 7 0 10 -262144 -1 -1 0
1;
#X obj 536 235 tgl 15 0 empty empty empty 17 7 0 10 -262144 -1 -1 0
1;
#X obj 170 181 ctlin 1 3;
#X obj 247 182 ctlin 1 4;
#X obj 313 183 ctlin 1 5;
#X obj 390 184 ctlin 1 6;
#X obj 458 184 ctlin 1 7;
#X obj 535 185 ctlin 1 8;
#X obj 290 405 s send_osc;
#X obj 23 260 oscformat fx_pedal one;
#X obj 89 283 oscformat fx_pedal two;
#X obj 164 258 oscformat fx_pedal three;
#X obj 242 283 oscformat fx_pedal four;
#X obj 310 257 oscformat fx_pedal five;
#X obj 394 283 oscformat fx_pedal six;
#X obj 458 255 oscformat fx_pedal seven;
#X obj 530 281 oscformat fx_pedal eight;
#X obj 192 46 r osc-autotest;
#X obj 192 67 metro 500;
#X obj 192 90 tgl 15 0 empty empty empty 17 7 0 10 -262144 -1 -1 0
1;
#X text 284 41 Autotest osc \, send from all objects at the same time
to test the patch, f 22;
#X connect 0 0 1 0;
#X connect 1 0 10 0;
#X connect 2 0 11 0;
#X connect 3 0 2 0;
#X connect 4 0 12 0;
#X connect 5 0 13 0;
#X connect 6 0 14 0;
#X connect 7 0 15 0;
#X connect 8 0 16 0;
#X connect 9 0 17 0;
#X connect 10 0 25 0;
#X connect 11 0 26 0;
#X connect 12 0 27 0;
#X connect 13 0 28 0;
#X connect 14 0 29 0;
#X connect 15 0 30 0;
#X connect 16 0 31 0;
#X connect 17 0 32 0;
#X connect 18 0 4 0;
#X connect 19 0 5 0;
#X connect 20 0 6 0;
#X connect 21 0 7 0;
#X connect 22 0 8 0;
#X connect 23 0 9 0;
#X connect 25 0 24 0;
#X connect 26 0 24 0;
#X connect 27 0 24 0;
#X connect 28 0 24 0;
#X connect 29 0 24 0;
#X connect 30 0 24 0;
#X connect 31 0 24 0;
#X connect 32 0 24 0;
#X connect 33 0 34 0;
#X connect 34 0 35 0;
#X connect 35 0 10 0;
#X connect 35 0 17 0;
#X connect 35 0 16 0;
#X connect 35 0 15 0;
#X connect 35 0 14 0;
#X connect 35 0 13 0;
#X connect 35 0 12 0;
#X connect 35 0 11 0;
#X restore 11 205 pd fx_pedal;
#N canvas 176 88 653 506 osc-in 0;
#X obj 29 156 netreceive -u -b;
#X obj 29 180 oscparse;
#X obj 29 203 route list;
#X msg 29 132 listen 9001;
#X obj 29 224 route wii;
#X obj 30 249 route accel button;
#X obj 30 298 route pitch roll yaw accel;
#X floatatom 27 327 5 0 0 0 - - -;
#X floatatom 66 328 5 0 0 0 - - -;
#X floatatom 106 329 5 0 0 0 - - -;
#X floatatom 146 329 5 0 0 0 - - -;
#X obj 252 253 tgl 15 0 empty empty empty 17 7 0 10 -262144 -1 -1 0
1;
#X obj 284 254 tgl 15 0 empty empty empty 17 7 0 10 -262144 -1 -1 0
1;
#X obj 314 254 tgl 15 0 empty empty empty 17 7 0 10 -262144 -1 -1 0
1;
#X obj 3 354 oscformat wii pitch;
#X obj 66 376 oscformat wii roll;
#X obj 127 354 oscformat wii yaw;
#X obj 187 376 oscformat wii accel;
#X obj 232 290 oscformat wii button one;
#X obj 261 311 oscformat wii button two;
#X obj 287 333 oscformat wii button A;
#X obj 167 53 r osc-autotest;
#X obj 167 95 tgl 15 0 empty empty empty 17 7 0 10 -262144 -1 -1 0
1;
#X obj 167 157 line;
#X obj 167 74 metro 300;
#X obj 167 136 pack 0 300;
#X obj 167 115 * 1207;
#X text 268 67 Autotest osc \, send from all objects at the same time
to test the patch, f 22;
#X obj 261 430 s send_osc;
#X obj 252 227 route one two A B;
#X obj 335 254 tgl 15 0 empty empty empty 17 7 0 10 -262144 -1 -1 0
1;
#X obj 417 270 s wii_triggersound;
#X obj 54 89 loadbang;
#X connect 0 0 1 0;
#X connect 1 0 2 0;
#X connect 2 0 4 0;
#X connect 3 0 0 0;
#X connect 4 0 5 0;
#X connect 5 0 6 0;
#X connect 5 1 29 0;
#X connect 6 0 7 0;
#X connect 6 1 8 0;
#X connect 6 2 9 0;
#X connect 6 3 10 0;
#X connect 7 0 14 0;
#X connect 8 0 15 0;
#X connect 9 0 16 0;
#X connect 10 0 17 0;
#X connect 11 0 18 0;
#X connect 12 0 19 0;
#X connect 13 0 20 0;
#X connect 14 0 28 0;
#X connect 15 0 28 0;
#X connect 16 0 28 0;
#X connect 17 0 28 0;
#X connect 18 0 28 0;
#X connect 19 0 28 0;
#X connect 20 0 28 0;
#X connect 21 0 24 0;
#X connect 22 0 26 0;
#X connect 23 0 7 0;
#X connect 23 0 10 0;
#X connect 23 0 9 0;
#X connect 23 0 8 0;
#X connect 24 0 22 0;
#X connect 24 0 11 0;
#X connect 24 0 13 0;
#X connect 24 0 12 0;
#X connect 25 0 23 0;
#X connect 26 0 25 0;
#X connect 29 0 11 0;
#X connect 29 1 12 0;
#X connect 29 2 13 0;
#X connect 29 3 30 0;
#X connect 30 0 31 0;
#X connect 32 0 3 0;
#X restore 11 315 pd osc-in;
#X obj 24 17 key;
#X obj 24 38 spigot;
#X obj 24 59 s keyboard;
#X obj 57 14 tgl 15 0 empty empty empty 17 7 0 10 -262144 -1 -1 0 1
;
#X text 77 13 <- Activate Keyboard Input;
#N canvas 671 114 450 300 more-osc-autotest 0;
#X obj 45 22 r osc-autotest;
#X obj 45 64 tgl 15 0 empty empty empty 17 7 0 10 -262144 -1 -1 0 1
;
#X obj 45 126 line;
#X obj 45 43 metro 300;
#X obj 45 105 pack 0 300;
#X obj 45 84 * 1207;
#X connect 0 0 3 0;
#X connect 1 0 5 0;
#X connect 3 0 1 0;
#X connect 4 0 2 0;
#X connect 5 0 4 0;
#X restore 11 180 pd more-osc-autotest;
#X obj 21 135 noteout;
#X msg 21 113 12;
#X obj 91 129 ctlout 7 17;
#X msg 77 104 127;
#N canvas 32 105 644 508 file_playback 0;
#X obj 101 101 cnv 15 158 58 empty empty Soundfiles 50 14 1 14 -262130
-66577 0;
#X obj 381 248 readsf~ 2;
#X obj 365 315 outlet~;
#X obj 430 313 outlet~;
#X msg 381 227 open ./audio/nun_1.wav \, start;
#X msg 381 203 open ./audio/nun_2.wav \, start;
#X msg 316 246 stop;
#X msg 380 180 open ./audio/nun_3.wav \, start;
#X msg 380 155 open ./audio/nun_4.wav \, start;
#X msg 381 132 open ./audio/nun_5.wav \, start;
#X msg 380 110 open ./audio/nun_6.wav \, start;
#X msg 380 88 open ./audio/nun_7.wav \, start;
#X obj 106 140 tgl 15 0 empty tog1 empty 17 7 0 10 -262144 -33289 -1
0 1;
#X obj 128 140 tgl 15 0 empty tog2 empty 17 7 0 10 -262144 -33289 -1
0 1;
#X obj 150 140 tgl 15 0 empty tog3 empty 17 7 0 10 -262144 -33289 -1
0 1;
#X obj 172 140 tgl 15 0 empty tog4 empty 17 7 0 10 -262144 -33289 -1
0 1;
#X obj 195 140 tgl 15 0 empty tog5 empty 17 7 0 10 -262144 -33289 -1
0 1;
#X obj 217 140 tgl 15 0 empty tog6 empty 17 7 0 10 -262144 -33289 -1
0 1;
#X obj 239 140 tgl 15 0 empty tog7 empty 17 7 0 10 -262144 -33289 -1
0 1;
#X obj 93 19 notein;
#X obj 93 43 sel 60 61 62 63 64 65 66 67 68;
#X msg 270 107 0;
#X obj 302 198 key;
#X obj 300 220 sel 27;
#X obj 106 165 togcolor tog1;
#X obj 125 185 togcolor tog2;
#X obj 145 205 togcolor tog3;
#X obj 165 225 togcolor tog4;
#X obj 185 245 togcolor tog5;
#X obj 205 265 togcolor tog6;
#X obj 225 285 togcolor tog7;
#X connect 1 0 2 0;
#X connect 1 1 3 0;
#X connect 1 2 21 0;
#X connect 4 0 1 0;
#X connect 5 0 1 0;
#X connect 6 0 1 0;
#X connect 7 0 1 0;
#X connect 8 0 1 0;
#X connect 9 0 1 0;
#X connect 10 0 1 0;
#X connect 11 0 1 0;
#X connect 12 0 24 0;
#X connect 13 0 25 0;
#X connect 14 0 26 0;
#X connect 15 0 27 0;
#X connect 16 0 28 0;
#X connect 17 0 29 0;
#X connect 18 0 30 0;
#X connect 19 0 20 0;
#X connect 20 0 4 0;
#X connect 20 0 12 0;
#X connect 20 1 13 0;
#X connect 20 1 5 0;
#X connect 20 2 14 0;
#X connect 20 2 7 0;
#X connect 20 3 15 0;
#X connect 20 3 8 0;
#X connect 20 4 16 0;
#X connect 20 4 9 0;
#X connect 20 5 17 0;
#X connect 20 5 10 0;
#X connect 20 6 18 0;
#X connect 20 6 11 0;
#X connect 21 0 12 0;
#X connect 21 0 13 0;
#X connect 21 0 14 0;
#X connect 21 0 15 0;
#X connect 21 0 16 0;
#X connect 21 0 17 0;
#X connect 21 0 18 0;
#X connect 22 0 23 0;
#X connect 23 0 6 0;
#X connect 23 0 21 0;
#X coords 0 -1 1 1 160 60 2 100 100;
#X restore 197 123 pd file_playback;
#N canvas 0 22 450 300 declares 0;
#X obj 24 33 declare -path abstractions;
#X obj 23 59 declare -path audio;
#X restore 12 285 pd declares;
#X obj 261 237 dac~;
#N canvas 0 22 450 300 windsFX 0;
#X obj 237 94 / 127;
#X obj 237 223 oscformat winds_FX;
#X obj 196 33 loadbang;
#X msg 196 54 127;
#X obj 101 101 cnv 15 83 28 empty empty Winds_FX 10 12 1 14 -159808
-262144 0;
#X obj 101 130 cnv 15 83 29 empty winds_FX [2]_dis+rin 10 12 1 14 -159808
-262144 0;
#X msg 263 156 \; winds_FX label [1]_del+rev;
#X msg 263 190 \; winds_FX label [2]_dis+rin;
#X obj 237 61 ctlin 10;
#X msg 324 28 0;
#X msg 373 28 127;
#X obj 263 135 sel 127;
#X msg 183 205 1;
#X obj 266 259 s send_osc;
#X connect 0 0 1 0;
#X connect 1 0 13 0;
#X connect 2 0 3 0;
#X connect 3 0 0 0;
#X connect 8 0 0 0;
#X connect 8 0 11 0;
#X connect 9 0 11 0;
#X connect 10 0 11 0;
#X connect 11 0 6 0;
#X connect 11 1 7 0;
#X connect 12 0 1 0;
#X coords 0 -1 1 1 85 60 2 100 100;
#X restore 377 123 pd windsFX;
#N canvas 0 22 450 300 wiisounds 0;
#X obj 166 27 r wii_triggersounds;
#X obj 165 200 readsf~ 2;
#X obj 149 267 outlet~;
#X obj 214 265 outlet~;
#X msg 165 139 open ./audio/b_nun.wav \, start;
#X msg 165 159 open ./audio/c_nun.wav \, start;
#X msg 165 179 open ./audio/d_nun.wav \, start;
#X msg 165 119 open ./audio/a_nun.wav \, start;
#X obj 166 48 f;
#X obj 166 69 + 1;
#X obj 195 6 loadbang;
#X msg 195 48 0;
#X obj 166 91 sel 1 2 3 4;
#X obj 120 43 bng 15 250 50 0 empty empty empty 17 7 0 10 -262144 -1
-1;
#X floatatom 115 82 5 0 0 0 - - -;
#X msg 301 75 stop;
#X obj 301 33 key;
#X obj 301 54 sel 27;
#X connect 0 0 8 0;
#X connect 1 0 2 0;
#X connect 1 1 3 0;
#X connect 4 0 1 0;
#X connect 5 0 1 0;
#X connect 6 0 1 0;
#X connect 7 0 1 0;
#X connect 8 0 9 0;
#X connect 9 0 8 1;
#X connect 9 0 12 0;
#X connect 9 0 14 0;
#X connect 10 0 11 0;
#X connect 11 0 8 1;
#X connect 12 0 7 0;
#X connect 12 1 4 0;
#X connect 12 2 5 0;
#X connect 12 3 6 0;
#X connect 13 0 8 0;
#X connect 15 0 1 0;
#X connect 16 0 17 0;
#X connect 17 0 15 0;
#X restore 242 205 pd wiisounds;
#X obj 197 78 switcher_stage 49 strings;
#X obj 311 80 switcher_stage 50 drums;
#X obj 425 80 switcher_stage 51 piano;
#X obj 537 78 switcher_stage 52 winds;
#X obj 525 125 cnv 15 120 160 empty empty empty 20 12 0 14 -109129
-66577 0;
#X obj 574 151 vsl 15 128 0 127 0 0 empty empty empty 0 -9 0 10 -262144
-1 -1 12700 1;
#X obj 526 125 ringthing_midiin 49;
#X obj 10 256 stage-osc-out 169.254.190.89 9006;
#X obj 359 253 cnv 15 100 60 empty ringthing_presets four 20 12 0 24
-258113 -66577 0;
#X connect 7 0 8 0;
#X connect 8 0 9 0;
#X connect 10 0 8 1;
#X connect 14 0 13 0;
#X connect 16 0 15 0;
#X connect 17 0 19 0;
#X connect 17 1 19 1;
#X connect 21 0 19 0;
#X connect 21 1 19 1;
#X connect 28 0 27 0;
