#N canvas 196 94 768 344 10;
#X declare -path abstractions;
#N canvas 342 171 779 378 expression 0;
#X obj 19 24 ctlin 7 1;
#X obj 97 25 ctlin 7 2;
#X obj 164 25 ctlin 7 3;
#X obj 241 26 ctlin 7 4;
#X obj 307 27 ctlin 7 5;
#X obj 384 28 ctlin 7 6;
#X obj 452 28 ctlin 7 7;
#X obj 529 29 ctlin 7 8;
#X floatatom 20 56 5 0 0 0 - - -;
#X floatatom 95 55 5 0 0 0 - - -;
#X floatatom 167 54 5 0 0 0 - - -;
#X floatatom 241 55 5 0 0 0 - - -;
#X floatatom 309 55 5 0 0 0 - - -;
#X floatatom 384 55 5 0 0 0 - - -;
#X floatatom 456 54 5 0 0 0 - - -;
#X floatatom 528 55 5 0 0 0 - - -;
#X obj 19 85 oscformat express one;
#X obj 85 108 oscformat express two;
#X obj 160 83 oscformat express three;
#X obj 238 108 oscformat express four;
#X obj 306 82 oscformat express five;
#X obj 390 108 oscformat express six;
#X obj 454 80 oscformat express seven;
#X obj 526 106 oscformat express eight;
#X obj 286 230 s send_osc;
#X text 601 28 read pedal inputs;
#X text 667 77 convert midi to osc message, f 16;
#X connect 0 0 8 0;
#X connect 1 0 9 0;
#X connect 2 0 10 0;
#X connect 3 0 11 0;
#X connect 4 0 12 0;
#X connect 5 0 13 0;
#X connect 6 0 14 0;
#X connect 7 0 15 0;
#X connect 8 0 16 0;
#X connect 9 0 17 0;
#X connect 10 0 18 0;
#X connect 11 0 19 0;
#X connect 12 0 20 0;
#X connect 13 0 21 0;
#X connect 14 0 22 0;
#X connect 15 0 23 0;
#X connect 16 0 24 0;
#X connect 17 0 24 0;
#X connect 18 0 24 0;
#X connect 19 0 24 0;
#X connect 20 0 24 0;
#X connect 21 0 24 0;
#X connect 22 0 24 0;
#X connect 23 0 24 0;
#X restore 22 73 pd expression;
#X obj 195 35 cnv 15 100 30 empty empty Strings 20 12 0 14 -224523
-66577 0;
#X obj 13 148 declare -path abstractions;
#X obj 309 36 cnv 15 100 30 empty empty Drums 25 12 0 14 -203904 -66577
0;
#X obj 424 36 cnv 15 100 30 empty empty Piano 25 12 0 14 -260097 -66577
0;
#X obj 536 36 cnv 15 100 30 empty empty Winds 25 12 0 14 -204786 -66577
0;
#N canvas 194 22 736 433 fx_pedal 0;
#X obj 19 24 ctlin 1 1;
#X obj 19 48 sel 127;
#X obj 96 49 sel 127;
#X obj 96 25 ctlin 1 2;
#X obj 165 50 sel 127;
#X obj 241 50 sel 127;
#X obj 307 51 sel 127;
#X obj 384 52 sel 127;
#X obj 452 52 sel 127;
#X obj 529 53 sel 127;
#X obj 19 72 tgl 15 0 empty empty empty 17 7 0 10 -262144 -1 -1 0 1
;
#X obj 97 78 tgl 15 0 empty empty empty 17 7 0 10 -262144 -1 -1 0 1
;
#X obj 167 77 tgl 15 0 empty empty empty 17 7 0 10 -262144 -1 -1 0
1;
#X obj 243 78 tgl 15 0 empty empty empty 17 7 0 10 -262144 -1 -1 0
1;
#X obj 309 78 tgl 15 0 empty empty empty 17 7 0 10 -262144 -1 -1 0
1;
#X obj 385 78 tgl 15 0 empty empty empty 17 7 0 10 -262144 -1 -1 0
1;
#X obj 454 78 tgl 15 0 empty empty empty 17 7 0 10 -262144 -1 -1 1
1;
#X obj 530 79 tgl 15 0 empty empty empty 17 7 0 10 -262144 -1 -1 0
1;
#X obj 164 25 ctlin 1 3;
#X obj 241 26 ctlin 1 4;
#X obj 307 27 ctlin 1 5;
#X obj 384 28 ctlin 1 6;
#X obj 452 28 ctlin 1 7;
#X obj 529 29 ctlin 1 8;
#X obj 284 249 s send_osc;
#X obj 17 104 oscformat fx_pedal one;
#X obj 83 127 oscformat fx_pedal two;
#X obj 158 102 oscformat fx_pedal three;
#X obj 236 127 oscformat fx_pedal four;
#X obj 304 101 oscformat fx_pedal five;
#X obj 388 127 oscformat fx_pedal six;
#X obj 452 99 oscformat fx_pedal seven;
#X obj 524 125 oscformat fx_pedal eight;
#X obj 94 250 ctlin;
#X floatatom 85 284 5 0 0 0 - - -;
#X floatatom 125 286 5 0 0 0 - - -;
#X floatatom 169 286 5 0 0 0 - - -;
#X connect 0 0 1 0;
#X connect 1 0 10 0;
#X connect 2 0 11 0;
#X connect 3 0 2 0;
#X connect 4 0 12 0;
#X connect 5 0 13 0;
#X connect 6 0 14 0;
#X connect 7 0 15 0;
#X connect 8 0 16 0;
#X connect 9 0 17 0;
#X connect 10 0 25 0;
#X connect 11 0 26 0;
#X connect 12 0 27 0;
#X connect 13 0 28 0;
#X connect 14 0 29 0;
#X connect 15 0 30 0;
#X connect 16 0 31 0;
#X connect 17 0 32 0;
#X connect 18 0 4 0;
#X connect 19 0 5 0;
#X connect 20 0 6 0;
#X connect 21 0 7 0;
#X connect 22 0 8 0;
#X connect 23 0 9 0;
#X connect 25 0 24 0;
#X connect 26 0 24 0;
#X connect 27 0 24 0;
#X connect 28 0 24 0;
#X connect 29 0 24 0;
#X connect 30 0 24 0;
#X connect 31 0 24 0;
#X connect 32 0 24 0;
#X connect 33 0 34 0;
#X connect 33 1 35 0;
#X connect 33 2 36 0;
#X restore 22 45 pd fx_pedal;
#X obj 197 78 switcher_stage 1 strings;
#N canvas 797 146 450 318 osc-in 0;
#X obj 29 56 netreceive -u -b;
#X obj 29 80 oscparse;
#X obj 29 103 route list;
#X msg 29 32 listen 9001;
#X obj 29 124 route wii;
#X obj 30 149 route accel button;
#X obj 226 199 route one two A;
#X obj 30 198 route pitch roll yaw accel;
#X floatatom 27 227 5 0 0 0 - - -;
#X floatatom 66 228 5 0 0 0 - - -;
#X floatatom 106 229 5 0 0 0 - - -;
#X floatatom 146 229 5 0 0 0 - - -;
#X obj 226 225 tgl 15 0 empty empty empty 17 7 0 10 -262144 -1 -1 0
1;
#X obj 258 226 tgl 15 0 empty empty empty 17 7 0 10 -262144 -1 -1 0
1;
#X obj 288 226 tgl 15 0 empty empty empty 17 7 0 10 -262144 -1 -1 0
1;
#X connect 0 0 1 0;
#X connect 1 0 2 0;
#X connect 2 0 4 0;
#X connect 3 0 0 0;
#X connect 4 0 5 0;
#X connect 5 0 7 0;
#X connect 5 1 6 0;
#X connect 6 0 12 0;
#X connect 6 1 13 0;
#X connect 6 2 14 0;
#X connect 7 0 8 0;
#X connect 7 1 9 0;
#X connect 7 2 10 0;
#X connect 7 3 11 0;
#X restore 17 176 pd osc-in;
#X obj 311 80 switcher_stage 2 drums;
#X obj 425 80 switcher_stage 3 piano;
#X obj 537 78 switcher_stage 4 winds;
#X obj 12 117 stage-osc-out 192.168.178.29 8001;
#X obj 253 213 ctlin;
#X floatatom 230 243 5 0 0 0 - - -;
#X floatatom 277 250 5 0 0 0 - - -;
#X floatatom 329 248 5 0 0 0 - - -;
#X connect 13 0 14 0;
#X connect 13 1 15 0;
#X connect 13 2 16 0;
