#N canvas 169 57 999 572 10;
#X declare -path abstractions;
#X obj 22 474 declare -path abstractions;
#X obj 19 276 output_routing violine_out;
#X obj 29 367 env~;
#X floatatom 29 388 5 0 0 0 - - -;
#X obj 119 370 env~;
#X floatatom 119 391 5 0 0 0 - - -;
#X obj 19 61 adc~ 1;
#N canvas 124 116 864 543 FX 1;
#X obj 37 37 inlet~;
#X obj 37 58 *~;
#X obj 37 79 outlet~;
#X obj 29 299 s violine;
#X floatatom 49 257 5 0 0 0 - - -;
#X obj 656 151 arctan_distortion 10 0.7 violine;
#X obj 235 118 readsf~;
#X obj 224 381 output~;
#X obj 114 174 noise~;
#X obj 657 174 ring 50 0.5 violine;
#X obj 658 198 pitch-shifter 2 1000 violine;
#X obj 658 222 harmonizer 0 0 0 5 violine;
#X obj 659 248 gs~ 2000 30 0 violine;
#X obj 655 103 chorus 4 3 2 8 0.5 0.8 0.6 0.9 violine;
#X obj 656 128 tremolo 5 0.5 violine;
#X msg 272 57 open audio/sax-jazz.wav \, start;
#X msg 145 9 open audio/voice.wav \, start;
#X obj 656 77 flanger 1 3 0.7 violine;
#X obj 314 217 compressor~ -30 40 40 0 0 0;
#X obj 356 294 *~;
#X obj 387 299 *~;
#X obj 354 95 tgl 15 0 empty empty empty 17 7 0 10 -262144 -1 -1 0
1;
#X obj 354 115 pack 0 20;
#X obj 354 136 line~;
#X obj 354 157 *~ -1;
#X obj 354 178 +~ 1;
#X msg 462 164 threshold \$1;
#X floatatom 455 133 5 0 0 0 - - -;
#X obj 375 25 bng 15 250 50 0 empty empty empty 17 7 0 10 -262144 -1
-1;
#X obj 479 55 spigot;
#X obj 508 26 tgl 15 0 empty empty empty 17 7 0 10 -262144 -1 -1 0
1;
#X obj 657 276 delayFX 100 50 violine;
#X connect 0 0 1 0;
#X connect 1 0 2 0;
#X connect 4 0 3 0;
#X connect 6 1 29 0;
#X connect 15 0 6 0;
#X connect 16 0 6 0;
#X connect 19 0 7 0;
#X connect 19 0 7 1;
#X connect 20 0 7 0;
#X connect 20 0 7 1;
#X connect 21 0 22 0;
#X connect 22 0 23 0;
#X connect 23 0 24 0;
#X connect 24 0 25 0;
#X connect 26 0 18 1;
#X connect 27 0 26 0;
#X connect 28 0 15 0;
#X connect 29 0 28 0;
#X connect 30 0 29 1;
#X restore 22 528 pd FX;
#X obj 19 22 cnv 15 100 30 empty empty Violine 20 12 0 14 -224523 -66577
0;
#X obj 19 209 volume 1 violine;
#X obj 19 164 fx violine;
#N canvas 0 22 762 300 osc-in 0;
#X obj 240 58 netreceive -u -b;
#X obj 240 82 oscparse;
#X obj 240 103 route list;
#X msg 240 34 listen 8001;
#X floatatom 44 209 5 0 0 0 - - -;
#X obj 68 172 route one two three four five six seven eight;
#X floatatom 89 211 5 0 0 0 - - -;
#X floatatom 133 211 5 0 0 0 - - -;
#X floatatom 176 212 5 0 0 0 - - -;
#X floatatom 221 210 5 0 0 0 - - -;
#X floatatom 266 212 5 0 0 0 - - -;
#X floatatom 310 212 5 0 0 0 - - -;
#X floatatom 353 213 5 0 0 0 - - -;
#X floatatom 405 212 5 0 0 0 - - -;
#X obj 429 175 route one two three four five six seven eight;
#X floatatom 450 214 5 0 0 0 - - -;
#X floatatom 494 214 5 0 0 0 - - -;
#X floatatom 537 215 5 0 0 0 - - -;
#X floatatom 582 213 5 0 0 0 - - -;
#X floatatom 627 215 5 0 0 0 - - -;
#X floatatom 671 215 5 0 0 0 - - -;
#X floatatom 714 216 5 0 0 0 - - -;
#X obj 240 127 route express fx_pedal output_routing;
#X obj 543 128 route strings percussion piano winds;
#X obj 543 149 print;
#X connect 0 0 1 0;
#X connect 1 0 2 0;
#X connect 2 0 22 0;
#X connect 3 0 0 0;
#X connect 5 0 4 0;
#X connect 5 1 6 0;
#X connect 5 2 7 0;
#X connect 5 3 8 0;
#X connect 5 4 9 0;
#X connect 5 5 10 0;
#X connect 5 6 11 0;
#X connect 5 7 12 0;
#X connect 14 0 13 0;
#X connect 14 1 15 0;
#X connect 14 2 16 0;
#X connect 14 3 17 0;
#X connect 14 4 18 0;
#X connect 14 5 19 0;
#X connect 14 6 20 0;
#X connect 14 7 21 0;
#X connect 22 0 5 0;
#X connect 22 1 14 0;
#X connect 22 2 23 0;
#X connect 23 0 24 0;
#X restore 21 500 pd osc-in;
#X obj 139 22 cnv 15 100 30 empty empty Viola 25 12 0 14 -224523 -66577
0;
#X obj 259 22 cnv 15 100 30 empty empty Cello 25 12 0 14 -224523 -66577
0;
#X obj 379 22 cnv 15 100 30 empty empty Piano 25 12 0 14 -224523 -66577
0;
#X obj 499 22 cnv 15 100 30 empty empty Drums 30 12 0 14 -224523 -66577
0;
#X obj 619 22 cnv 15 100 30 empty empty Sax 35 12 0 14 -224523 -66577
0;
#X obj 739 22 cnv 15 100 30 empty empty Oboe 30 12 0 14 -224523 -66577
0;
#X obj 859 22 cnv 15 100 30 empty empty Clarinet 20 12 0 14 -224523
-66577 0;
#X obj 19 92 input_routing 1 violine;
#X connect 1 0 2 0;
#X connect 1 1 4 0;
#X connect 2 0 3 0;
#X connect 4 0 5 0;
#X connect 6 0 19 0;
#X connect 9 0 1 0;
#X connect 10 0 9 0;
#X connect 19 0 9 0;
#X connect 19 1 9 0;
