#N canvas 393 166 768 345 10;
#X declare -path abstractions;
#X declare -path audio;
#N canvas 298 258 779 455 expression 0;
#X floatatom 25 213 5 0 0 0 - - -;
#X floatatom 100 212 5 0 0 0 - - -;
#X floatatom 172 211 5 0 0 0 - - -;
#X floatatom 246 212 5 0 0 0 - - -;
#X floatatom 314 212 5 0 0 0 - - -;
#X floatatom 389 212 5 0 0 0 - - -;
#X floatatom 461 211 5 0 0 0 - - -;
#X floatatom 533 212 5 0 0 0 - - -;
#X obj 24 242 oscformat express one;
#X obj 90 265 oscformat express two;
#X obj 165 240 oscformat express three;
#X obj 243 265 oscformat express four;
#X obj 311 239 oscformat express five;
#X obj 395 265 oscformat express six;
#X obj 459 237 oscformat express seven;
#X obj 531 263 oscformat express eight;
#X text 606 185 read pedal inputs;
#X text 672 234 convert midi to osc message, f 16;
#X obj 173 9 r osc-autotest;
#X obj 173 30 metro 500;
#X obj 173 51 tgl 15 0 empty empty empty 17 7 0 10 -262144 -1 -1 0
1;
#X obj 173 71 * 127;
#X obj 173 92 pack 0 500;
#X obj 173 113 line;
#X text 243 35 Autotest osc \, send from all objects at the same time
to test the patch, f 22;
#X obj 24 181 ctlin 7 17;
#X obj 102 182 ctlin 7 18;
#X obj 169 182 ctlin 7 19;
#X obj 246 183 ctlin 7 20;
#X obj 312 184 ctlin 7 37;
#X obj 389 185 ctlin 7 38;
#X obj 457 185 ctlin 7 39;
#X obj 534 186 ctlin 7 40;
#X connect 0 0 8 0;
#X connect 1 0 9 0;
#X connect 2 0 10 0;
#X connect 3 0 11 0;
#X connect 4 0 12 0;
#X connect 5 0 13 0;
#X connect 6 0 14 0;
#X connect 7 0 15 0;
#X connect 18 0 19 0;
#X connect 19 0 20 0;
#X connect 20 0 21 0;
#X connect 21 0 22 0;
#X connect 22 0 23 0;
#X connect 23 0 0 0;
#X connect 23 0 1 0;
#X connect 23 0 7 0;
#X connect 23 0 6 0;
#X connect 23 0 5 0;
#X connect 23 0 4 0;
#X connect 23 0 3 0;
#X connect 23 0 2 0;
#X connect 25 0 0 0;
#X connect 26 0 1 0;
#X connect 27 0 2 0;
#X connect 28 0 3 0;
#X connect 29 0 4 0;
#X connect 30 0 5 0;
#X connect 31 0 6 0;
#X connect 32 0 7 0;
#X restore 22 165 pd expression;
#X obj 195 35 cnv 15 100 30 empty empty Strings 20 12 0 14 -224523
-66577 0;
#X obj 309 36 cnv 15 100 30 empty empty Drums 25 12 0 14 -203904 -66577
0;
#X obj 424 36 cnv 15 100 30 empty empty Piano 25 12 0 14 -260097 -66577
0;
#X obj 536 36 cnv 15 100 30 empty empty Winds 25 12 0 14 -204786 -66577
0;
#N canvas 223 259 1057 433 fx_pedal 0;
#X obj -31 180 ctlin 1 1;
#X obj -31 204 sel 127;
#X obj 87 202 sel 127;
#X obj 87 179 ctlin 1 2;
#X obj 211 205 sel 127;
#X obj 318 212 sel 127;
#X obj 435 213 sel 127;
#X obj 530 220 sel 127;
#X obj 667 227 sel 127;
#X obj 789 225 sel 127;
#X obj -31 228 tgl 15 0 empty empty empty 17 7 0 10 -262144 -1 -1 0
1;
#X obj 87 228 tgl 15 0 empty empty empty 17 7 0 10 -262144 -1 -1 0
1;
#X obj 211 237 tgl 15 0 empty empty empty 17 7 0 10 -262144 -1 -1 0
1;
#X obj 318 236 tgl 15 0 empty empty empty 17 7 0 10 -262144 -1 -1 0
1;
#X obj 435 237 tgl 15 0 empty empty empty 17 7 0 10 -262144 -1 -1 0
1;
#X obj 530 244 tgl 15 0 empty empty empty 17 7 0 10 -262144 -1 -1 0
1;
#X obj 667 249 tgl 15 0 empty empty empty 17 7 0 10 -262144 -1 -1 0
1;
#X obj 789 249 tgl 15 0 empty empty empty 17 7 0 10 -262144 -1 -1 0
1;
#X obj 211 181 ctlin 1 3;
#X obj 318 188 ctlin 1 4;
#X obj 435 189 ctlin 1 5;
#X obj 530 196 ctlin 1 6;
#X obj 667 205 ctlin 1 7;
#X obj 789 201 ctlin 1 8;
#X obj 290 405 s send_osc;
#X obj 353 35 r osc-autotest;
#X obj 353 56 metro 500;
#X obj 353 79 tgl 15 0 empty empty empty 17 7 0 10 -262144 -1 -1 0
1;
#X text 445 30 Autotest osc \, send from all objects at the same time
to test the patch, f 22;
#X obj -31 251 list prepend fx_pedal violine, f 17;
#X obj 87 247 list prepend fx_pedal viola, f 15;
#X obj 211 252 list prepend fx_pedal cello, f 14;
#X obj 318 259 list prepend fx_pedal piano, f 14;
#X obj 435 260 list prepend fx_pedal drums, f 14;
#X obj 530 267 list prepend fx_pedal sax, f 17;
#X obj 667 270 list prepend fx_pedal clarinet, f 17;
#X obj 789 272 list prepend fx_pedal oboe, f 13;
#X connect 0 0 1 0;
#X connect 1 0 10 0;
#X connect 2 0 11 0;
#X connect 3 0 2 0;
#X connect 4 0 12 0;
#X connect 5 0 13 0;
#X connect 6 0 14 0;
#X connect 7 0 15 0;
#X connect 8 0 16 0;
#X connect 9 0 17 0;
#X connect 10 0 29 0;
#X connect 11 0 30 0;
#X connect 12 0 31 0;
#X connect 13 0 32 0;
#X connect 14 0 33 0;
#X connect 15 0 34 0;
#X connect 16 0 35 0;
#X connect 17 0 36 0;
#X connect 18 0 4 0;
#X connect 19 0 5 0;
#X connect 20 0 6 0;
#X connect 21 0 7 0;
#X connect 22 0 8 0;
#X connect 23 0 9 0;
#X connect 25 0 26 0;
#X connect 26 0 27 0;
#X connect 27 0 10 0;
#X connect 27 0 17 0;
#X connect 27 0 16 0;
#X connect 27 0 15 0;
#X connect 27 0 14 0;
#X connect 27 0 13 0;
#X connect 27 0 12 0;
#X connect 27 0 11 0;
#X connect 29 0 24 0;
#X connect 30 0 24 0;
#X connect 31 0 24 0;
#X connect 32 0 24 0;
#X connect 33 0 24 0;
#X connect 34 0 24 0;
#X connect 35 0 24 0;
#X connect 36 0 24 0;
#X restore 22 137 pd fx_pedal;
#N canvas 449 22 779 649 osc-in 0;
#X obj 85 28 netreceive -u -b;
#X obj 85 52 oscparse;
#X obj 85 75 route list;
#X msg 85 4 listen 9001;
#X obj 85 96 route wii;
#X obj 86 121 route accel button;
#X obj 58 215 route pitch roll yaw accel, f 43;
#X floatatom 35 270 5 0 0 0 - - -;
#X floatatom 113 273 5 0 0 0 - - -;
#X floatatom 200 252 5 0 0 0 - - -;
#X floatatom 283 254 5 0 0 0 - - -;
#X obj 465 263 tgl 15 0 empty empty empty 17 7 0 10 -262144 -1 -1 0
1;
#X obj 497 264 tgl 15 0 empty empty empty 17 7 0 10 -262144 -1 -1 0
1;
#X obj 527 264 tgl 15 0 empty empty empty 17 7 0 10 -262144 -1 -1 0
1;
#X obj 548 264 tgl 15 0 empty empty empty 17 7 0 10 -262144 -1 -1 0
1;
#X obj 85 -19 loadbang;
#X obj 465 237 route one two A B up down left right;
#X obj 29 305 list prepend wii pitch, f 12;
#X obj 112 305 list prepend wii roll, f 12;
#X obj 200 306 list prepend wii yaw, f 12;
#X obj 292 303 list prepend wii accel, f 12;
#X obj 445 300 list prepend wii button one;
#X obj 474 321 list prepend wii button two;
#X obj 500 343 list prepend wii button three;
#X obj 227 419 list trim;
#X obj 227 440 s send_osc;
#X connect 0 0 1 0;
#X connect 1 0 2 0;
#X connect 2 0 4 0;
#X connect 3 0 0 0;
#X connect 4 0 5 0;
#X connect 5 0 6 0;
#X connect 5 1 16 0;
#X connect 6 0 7 0;
#X connect 6 1 8 0;
#X connect 6 2 9 0;
#X connect 6 3 10 0;
#X connect 7 0 17 0;
#X connect 8 0 18 0;
#X connect 9 0 19 0;
#X connect 10 0 20 0;
#X connect 11 0 21 0;
#X connect 12 0 22 0;
#X connect 13 0 23 0;
#X connect 15 0 3 0;
#X connect 16 0 11 0;
#X connect 16 1 12 0;
#X connect 16 2 13 0;
#X connect 16 3 14 0;
#X connect 17 0 24 0;
#X connect 18 0 24 0;
#X connect 19 0 24 0;
#X connect 20 0 24 0;
#X connect 21 0 24 0;
#X connect 22 0 24 0;
#X connect 23 0 24 0;
#X connect 24 0 25 0;
#X restore 112 165 pd osc-in;
#X obj 24 17 key;
#X obj 24 38 spigot;
#X obj 24 59 s keyboard;
#X obj 57 14 tgl 15 0 empty empty empty 17 7 0 10 -262144 -1 -1 0 1
;
#X text 77 13 <- Activate Keyboard Input;
#N canvas 671 114 450 300 more-osc-autotest 0;
#X obj 45 22 r osc-autotest;
#X obj 45 64 tgl 15 0 empty empty empty 17 7 0 10 -262144 -1 -1 1 1
;
#X obj 45 126 line;
#X obj 45 43 metro 300;
#X obj 45 105 pack 0 300;
#X obj 45 84 * 1207;
#X connect 0 0 3 0;
#X connect 1 0 5 0;
#X connect 3 0 1 0;
#X connect 4 0 2 0;
#X connect 5 0 4 0;
#X restore 22 112 pd more-osc-autotest;
#N canvas 338 41 644 508 file_playback 0;
#X obj 101 101 cnv 15 158 58 empty empty Soundfiles 50 14 1 14 -262130
-66577 0;
#X msg 316 246 stop;
#X obj 106 140 tgl 15 0 empty tog1 empty 17 7 0 10 -262144 -33289 -1
0 1;
#X obj 128 140 tgl 15 0 empty tog2 empty 17 7 0 10 -262144 -33289 -1
0 1;
#X obj 150 140 tgl 15 0 empty tog3 empty 17 7 0 10 -262144 -33289 -1
0 1;
#X obj 172 140 tgl 15 0 empty tog4 empty 17 7 0 10 -262144 -33289 -1
0 1;
#X obj 195 140 tgl 15 0 empty tog5 empty 17 7 0 10 -262144 -33289 -1
0 1;
#X obj 217 140 tgl 15 0 empty tog6 empty 17 7 0 10 -262144 -33289 -1
0 1;
#X obj 239 140 tgl 15 0 empty tog7 empty 17 7 0 10 -262144 -33289 -1
0 1;
#X obj 93 19 notein;
#X obj 93 43 sel 60 61 62 63 64 65 66 67 68;
#X msg 270 107 0;
#X obj 302 198 key;
#X obj 300 220 sel 27;
#X obj 106 165 togcolor tog1;
#X obj 125 185 togcolor tog2;
#X obj 145 205 togcolor tog3;
#X obj 165 225 togcolor tog4;
#X obj 185 245 togcolor tog5;
#X obj 205 265 togcolor tog6;
#X obj 225 285 togcolor tog7;
#X obj 333 80 t b;
#X msg 333 102 1;
#X obj 364 81 t b;
#X obj 399 80 t b;
#X obj 430 81 t b;
#X obj 462 80 t b;
#X obj 493 81 t b;
#X obj 528 80 t b;
#X obj 559 81 t b;
#X msg 559 103 1;
#X msg 364 103 2;
#X msg 399 102 3;
#X msg 430 103 4;
#X msg 462 102 5;
#X msg 493 103 6;
#X msg 528 102 7;
#X obj 316 267 list prepend symbol;
#X obj 316 288 list trim;
#X obj 399 162 list prepend soundfile;
#X obj 399 204 s send_osc;
#X connect 1 0 37 0;
#X connect 2 0 14 0;
#X connect 3 0 15 0;
#X connect 4 0 16 0;
#X connect 5 0 17 0;
#X connect 6 0 18 0;
#X connect 7 0 19 0;
#X connect 8 0 20 0;
#X connect 9 0 10 0;
#X connect 10 0 2 0;
#X connect 10 0 21 0;
#X connect 10 1 3 0;
#X connect 10 1 23 0;
#X connect 10 2 4 0;
#X connect 10 2 24 0;
#X connect 10 3 5 0;
#X connect 10 3 25 0;
#X connect 10 4 6 0;
#X connect 10 4 26 0;
#X connect 10 5 7 0;
#X connect 10 5 27 0;
#X connect 10 6 8 0;
#X connect 10 6 28 0;
#X connect 11 0 2 0;
#X connect 11 0 3 0;
#X connect 11 0 4 0;
#X connect 11 0 5 0;
#X connect 11 0 6 0;
#X connect 11 0 7 0;
#X connect 11 0 8 0;
#X connect 12 0 13 0;
#X connect 13 0 1 0;
#X connect 13 0 11 0;
#X connect 21 0 22 0;
#X connect 22 0 39 0;
#X connect 23 0 31 0;
#X connect 24 0 32 0;
#X connect 25 0 33 0;
#X connect 26 0 34 0;
#X connect 27 0 35 0;
#X connect 28 0 36 0;
#X connect 29 0 30 0;
#X connect 31 0 39 0;
#X connect 32 0 39 0;
#X connect 33 0 39 0;
#X connect 34 0 39 0;
#X connect 35 0 39 0;
#X connect 36 0 39 0;
#X connect 37 0 38 0;
#X connect 38 0 39 0;
#X connect 39 0 40 0;
#X coords 0 -1 1 1 160 60 2 100 100;
#X restore 197 123 pd file_playback;
#N canvas 0 22 450 300 declares 0;
#X obj 24 33 declare -path abstractions;
#X obj 23 59 declare -path audio;
#X restore 99 136 pd declares;
#X obj 261 237 dac~;
#N canvas 0 22 450 300 windsFX 0;
#X obj 237 94 / 127;
#X obj 196 33 loadbang;
#X msg 196 54 127;
#X obj 101 101 cnv 15 83 28 empty empty Winds_FX 10 12 1 14 -159808
-262144 0;
#X obj 101 130 cnv 15 83 29 empty winds_FX [1]_del+rev 10 12 1 14 -159808
-262144 0;
#X msg 263 156 \; winds_FX label [1]_del+rev;
#X msg 263 190 \; winds_FX label [2]_dis+rin;
#X obj 237 61 ctlin 10;
#X msg 324 28 0;
#X msg 373 28 127;
#X obj 263 135 sel 127;
#X msg 183 205 1;
#X obj 237 267 s send_osc;
#X obj 237 223 list prepend winds_fx;
#X connect 0 0 13 0;
#X connect 1 0 2 0;
#X connect 2 0 0 0;
#X connect 7 0 0 0;
#X connect 7 0 10 0;
#X connect 8 0 10 0;
#X connect 8 0 0 0;
#X connect 9 0 10 0;
#X connect 9 0 0 0;
#X connect 10 0 5 0;
#X connect 10 1 6 0;
#X connect 11 0 13 0;
#X connect 13 0 12 0;
#X coords 0 -1 1 1 85 60 2 100 100;
#X restore 377 123 pd windsFX;
#N canvas 542 223 450 469 wiisounds 0;
#X obj 149 305 readsf~ 2;
#X obj 133 372 outlet~;
#X obj 198 370 outlet~;
#X msg 149 244 open ./audio/b_nun.wav \, start;
#X msg 149 264 open ./audio/c_nun.wav \, start;
#X msg 149 284 open ./audio/d_nun.wav \, start;
#X msg 149 224 open ./audio/a_nun.wav \, start;
#X msg 79 232 stop;
#X obj 79 190 key;
#X obj 79 211 sel 27;
#X obj 149 121 r sampleplayer;
#X obj 149 142 route left up right down;
#X obj 149 183 t b;
#X obj 179 183 t b;
#X obj 210 184 t b;
#X obj 242 185 t b;
#X connect 0 0 1 0;
#X connect 0 1 2 0;
#X connect 3 0 0 0;
#X connect 4 0 0 0;
#X connect 5 0 0 0;
#X connect 6 0 0 0;
#X connect 7 0 0 0;
#X connect 8 0 9 0;
#X connect 9 0 7 0;
#X connect 10 0 11 0;
#X connect 11 0 12 0;
#X connect 11 1 13 0;
#X connect 11 2 14 0;
#X connect 11 3 15 0;
#X connect 12 0 6 0;
#X connect 13 0 3 0;
#X connect 14 0 4 0;
#X connect 15 0 5 0;
#X restore 242 205 pd wiisounds;
#X obj 197 78 switcher_stage 49 strings;
#X obj 311 80 switcher_stage 50 drums;
#X obj 425 80 switcher_stage 51 piano;
#X obj 537 78 switcher_stage 52 winds;
#X obj 525 125 cnv 15 120 160 empty empty empty 20 12 0 14 -109129
-66577 0;
#X obj 574 151 vsl 15 128 0 127 0 0 empty empty empty 0 -9 0 10 -262144
-1 -1 0 1;
#X obj 526 125 ringthing_midiin 49;
#X obj 359 253 cnv 15 100 60 empty ringthing_presets one 20 30 0 24
-258113 -66577 0;
#X obj 9 287 stage-osc-out localhost 9006;
#X obj 9 266 tgl 15 0 empty empty empty 17 7 0 10 -262144 -1 -1 0 1
;
#X text 31 267 autotest the network connection;
#N canvas 0 22 450 300 init 0;
#X obj 18 145 noteout;
#X msg 18 123 12;
#X obj 88 139 ctlout 7 17;
#X msg 74 114 127;
#X obj 91 62 loadbang;
#X msg 193 124 \; pd dsp 1;
#X connect 1 0 0 0;
#X connect 3 0 2 0;
#X connect 4 0 1 0;
#X connect 4 0 3 0;
#X connect 4 0 5 0;
#X restore 22 86 pd init;
#X connect 7 0 8 0;
#X connect 8 0 9 0;
#X connect 10 0 8 1;
#X connect 17 0 15 0;
#X connect 17 1 15 1;
#X connect 24 0 23 0;
#X connect 27 0 26 0;
