#N canvas 42 159 1176 423 10;
#X declare -path abstractions;
#X obj 19 370 declare -path abstractions;
#X obj 19 57 adc~ 1;
#X obj 19 22 cnv 15 100 30 empty empty Violine 20 12 0 14 -224523 -66577
0;
#N canvas 170 346 144 125 osc-in 0;
#X obj 20 81 s pedal_data;
#X msg 20 35 listen 9006;
#X obj 20 12 loadbang;
#X obj 20 59 netreceive;
#X connect 1 0 3 0;
#X connect 2 0 1 0;
#X connect 3 0 0 0;
#X restore 18 396 pd osc-in;
#X obj 139 22 cnv 15 100 30 empty empty Viola 25 12 0 14 -224523 -66577
0;
#X obj 259 22 cnv 15 100 30 empty empty Cello 25 12 0 14 -224523 -66577
0;
#X obj 380 22 cnv 15 100 30 empty empty Piano 25 12 0 14 -224523 -66577
0;
#X obj 500 22 cnv 15 100 30 empty empty Drums 30 12 0 14 -224523 -66577
0;
#X obj 620 22 cnv 15 100 30 empty empty Sax 35 12 0 14 -224523 -66577
0;
#X obj 864 22 cnv 15 100 30 empty empty Oboe 30 12 0 14 -224523 -66577
0;
#X obj 740 22 cnv 15 100 30 empty empty Clarinet 20 12 0 14 -224523
-66577 0;
#X obj 19 224 output_routing strings;
#X obj 620 83 input_routing six sax;
#X obj 620 154 FX_winds sax del+rev ring+dist;
#X obj 864 83 input_routing seven oboe;
#X obj 864 153 FX_winds oboe del+rev ring+dist;
#N canvas 623 129 450 372 INIT 0;
#X msg 14 114 \; sax reverb 40 \; sax delay 100 \; sax mod_freq 100
\; sax depth 1 \; sax gain 10 \; sax select_fx del+rev \;;
#X msg 15 208 \; oboe reverb 45 \; oboe delay 120 \; oboe mod_freq
120 \; oboe depth 2 \; oboe gain 15 \; oboe select_fx del+rev \;;
#X msg 216 27 \; clarinet reverb 30 \; clarinet delay 80 \; clarinet
mod_freq 60 \; clarinet depth 0.8 \; clarinet gain 18 \; clarinet select_fx
del+rev \;;
#X msg 179 132 \; pedal_data output_routing strings speaker \;;
#X msg 180 172 \; pedal_data output_routing piano speaker \;;
#X msg 180 210 \; pedal_data output_routing drums speaker \;;
#X msg 180 248 \; pedal_data output_routing winds speaker \;;
#X obj 160 3 inlet;
#X msg 180 289 \; pedal_data fx_pedal four 1 \;;
#X connect 7 0 3 0;
#X connect 7 0 4 0;
#X connect 7 0 5 0;
#X connect 7 0 6 0;
#X connect 7 0 8 0;
#X restore 193 385 pd INIT;
#X obj 740 83 input_routing eight clarinet;
#X obj 740 153 FX_winds clarinet del+rev ring+dist;
#X obj 19 153 FX_violine violine;
#X obj 139 83 input_routing two viola;
#X obj 139 153 FX_viola viola;
#X obj 259 153 FX_cello cello;
#X obj 259 83 input_routing three cello;
#X obj 259 224 output_routing strings;
#X obj 620 223 output_routing winds;
#X obj 740 224 output_routing winds;
#X obj 862 224 output_routing winds;
#X obj 139 224 output_routing strings;
#X obj 500 224 output_routing drums;
#X obj 500 153 FX_drums drums chorus flanger gs;
#N canvas 4 47 534 408 wii 0;
#X obj 34 83 r pedal_data;
#X obj 34 109 route wii;
#X obj 35 158 route pitch roll yaw accel;
#X obj 220 162 route one two A;
#X obj 220 188 tgl 15 0 empty empty empty 17 7 0 10 -262144 -1 -1 0
1;
#X obj 252 189 tgl 15 0 empty empty empty 17 7 0 10 -262144 -1 -1 0
1;
#X obj 282 189 tgl 15 0 empty empty empty 17 7 0 10 -262144 -1 -1 0
1;
#X floatatom 31 188 5 0 0 0 - - -;
#X floatatom 76 189 5 0 0 0 - - -;
#X floatatom 117 189 5 0 0 0 - - -;
#X floatatom 158 189 5 0 0 0 - - -;
#X obj 216 139 route button;
#X obj 19 283 s drums_fx_clean;
#X obj 220 218 sel 1;
#X obj 220 239 t b b;
#X msg 220 260 0;
#X msg 219 281 \; drums select_fx chorus \;;
#X msg 285 313 \; drums select_fx flanger \;;
#X msg 323 347 \; drums select_fx gs \;;
#X obj 258 218 sel 1;
#X obj 258 239 t b b;
#X msg 258 260 0;
#X obj 296 218 sel 1;
#X obj 296 239 t b b;
#X msg 296 260 0;
#N canvas 18 263 574 394 drums_fx_modulation 0;
#X obj 171 4 inlet;
#X msg 17 117 \; drums flanger freq_mod \$1 \;;
#X obj 17 75 * 40;
#X obj 17 96 + 20;
#X obj 71 71 * 1000;
#X obj 71 92 + 1000;
#X msg 71 151 \; drums granular signal \$1 \;;
#X obj 236 73 * 10;
#X obj 236 94 + 5;
#X obj 271 94 + 5;
#X obj 271 73 * 8;
#X obj 300 73 * 2;
#X obj 300 94 + 3;
#X obj 327 73 * 7;
#X obj 327 94 + 8;
#X msg 236 115 \; drums chorus mod_freq v1 \$1 \;;
#X msg 271 147 \; drums chorus mod_freq v2 \$1 \;;
#X msg 300 179 \; drums chorus mod_freq v2 \$1 \;;
#X msg 327 211 \; drums chorus mod_freq v2 \$1 \;;
#X obj 18 189 clip 0 0.9;
#X msg 18 210 \; drums flanger feedback \$1;
#X msg 18 283 \; drums flanger amp_mod \$1;
#X obj 18 242 * 20;
#X obj 18 263 + 10;
#X connect 0 0 2 0;
#X connect 0 0 4 0;
#X connect 0 0 7 0;
#X connect 0 0 10 0;
#X connect 0 0 11 0;
#X connect 0 0 13 0;
#X connect 0 0 19 0;
#X connect 0 0 22 0;
#X connect 2 0 3 0;
#X connect 3 0 1 0;
#X connect 4 0 5 0;
#X connect 5 0 6 0;
#X connect 7 0 8 0;
#X connect 8 0 15 0;
#X connect 9 0 16 0;
#X connect 10 0 9 0;
#X connect 11 0 12 0;
#X connect 12 0 17 0;
#X connect 13 0 14 0;
#X connect 14 0 18 0;
#X connect 19 0 20 0;
#X connect 22 0 23 0;
#X restore 76 221 pd drums_fx_modulation;
#X obj 19 262 > 0.5;
#X connect 0 0 1 0;
#X connect 1 0 2 0;
#X connect 1 0 11 0;
#X connect 2 0 7 0;
#X connect 2 1 8 0;
#X connect 2 2 9 0;
#X connect 2 3 10 0;
#X connect 3 0 4 0;
#X connect 3 1 5 0;
#X connect 3 2 6 0;
#X connect 4 0 13 0;
#X connect 5 0 19 0;
#X connect 6 0 22 0;
#X connect 7 0 26 0;
#X connect 8 0 25 0;
#X connect 11 0 3 0;
#X connect 13 0 14 0;
#X connect 14 0 15 0;
#X connect 14 1 16 0;
#X connect 15 0 5 0;
#X connect 15 0 6 0;
#X connect 19 0 20 0;
#X connect 20 0 21 0;
#X connect 20 1 17 0;
#X connect 21 0 4 0;
#X connect 21 0 6 0;
#X connect 22 0 23 0;
#X connect 23 0 24 0;
#X connect 23 1 18 0;
#X connect 24 0 5 0;
#X connect 24 0 4 0;
#X connect 26 0 12 0;
#X restore 18 347 pd wii;
#X obj 500 83 input_routing_drums;
#X obj 380 153 FX_piano piano ring freqmod;
#X obj 380 83 input_routing four piano;
#X obj 380 224 output_routing piano;
#N canvas 229 62 473 533 winds_fx_select 0;
#X obj 166 162 r pedal_data;
#X obj 166 182 route winds_FX;
#X obj 166 203 sel 1;
#X msg 263 277 \; sax select_fx ring+dist \;;
#X msg 74 276 \; sax select_fx del+rev \;;
#X msg 74 309 \; oboe select_fx del+rev \;;
#X msg 263 310 \; oboe select_fx ring+dist \;;
#X msg 74 342 \; clarinet select_fx del+rev \;;
#X msg 263 343 \; clarinet select_fx ring+dist \;;
#X obj 115 134 inlet;
#X connect 0 0 1 0;
#X connect 1 0 2 0;
#X connect 2 0 4 0;
#X connect 2 0 5 0;
#X connect 2 0 7 0;
#X connect 2 1 3 0;
#X connect 2 1 6 0;
#X connect 2 1 8 0;
#X connect 9 0 2 0;
#X restore 882 356 pd winds_fx_select;
#X obj 139 57 adc~ 2;
#X obj 259 57 adc~ 3;
#X obj 380 57 adc~ 4;
#X obj 500 57 adc~ 5;
#X obj 620 57 adc~ 6;
#X msg 882 335 0;
#X msg 882 305 1;
#X floatatom 194 192 5 0 0 0 - - -;
#X floatatom 71 192 5 0 0 0 - - -;
#X floatatom 311 191 5 0 0 0 - - -;
#X floatatom 431 192 5 0 0 0 - - -;
#X floatatom 548 192 5 0 0 0 - - -;
#X floatatom 669 192 5 0 0 0 - - -;
#X floatatom 911 191 5 0 0 0 - - -;
#X floatatom 787 191 5 0 0 0 - - -;
#N canvas 415 75 644 508 file_playback 1;
#X obj 101 101 cnv 15 158 58 empty empty Soundfiles 50 14 1 14 -262130
-66577 0;
#X msg 381 227 open ./audio/nun_1.wav \, start;
#X msg 381 203 open ./audio/nun_2.wav \, start;
#X msg 316 246 stop;
#X msg 380 180 open ./audio/nun_3.wav \, start;
#X msg 380 155 open ./audio/nun_4.wav \, start;
#X msg 381 132 open ./audio/nun_5.wav \, start;
#X msg 380 110 open ./audio/nun_6.wav \, start;
#X msg 380 88 open ./audio/nun_7.wav \, start;
#X obj 106 140 tgl 15 0 empty tog1 empty 17 7 0 10 -262144 -33289 -1
0 1;
#X obj 128 140 tgl 15 0 empty tog2 empty 17 7 0 10 -262144 -33289 -1
0 1;
#X obj 150 140 tgl 15 0 empty tog3 empty 17 7 0 10 -262144 -33289 -1
0 1;
#X obj 172 140 tgl 15 0 empty tog4 empty 17 7 0 10 -262144 -33289 -1
0 1;
#X obj 195 140 tgl 15 0 empty tog5 empty 17 7 0 10 -262144 -33289 -1
0 1;
#X obj 217 140 tgl 15 0 empty tog6 empty 17 7 0 10 -262144 -33289 -1
0 1;
#X obj 239 140 tgl 15 0 empty tog7 empty 17 7 0 10 -262144 -33289 -1
0 1;
#X msg 270 107 0;
#X obj 302 198 key;
#X obj 300 220 sel 27;
#X obj 106 165 togcolor tog1;
#X obj 125 185 togcolor tog2;
#X obj 145 205 togcolor tog3;
#X obj 165 225 togcolor tog4;
#X obj 185 245 togcolor tog5;
#X obj 205 265 togcolor tog6;
#X obj 225 285 togcolor tog7;
#X obj 93 1 r pedal_data;
#X obj 381 248 readsf~;
#X obj 92 23 route tape;
#X obj 432 250 readsf~;
#X obj 484 250 readsf~;
#X obj 538 249 readsf~;
#X floatatom 245 13 5 0 0 0 - - -;
#X obj 93 43 route 1 2 3 4 5 6 7 stop;
#X obj 283 42 print;
#X obj 379 275 throw~ tr1;
#X obj 422 301 throw~ tr2;
#X obj 480 273 throw~ tr3;
#X obj 560 313 throw~ tr4;
#X obj 534 399 dac~ 13 14;
#X connect 1 0 27 0;
#X connect 2 0 30 0;
#X connect 3 0 27 0;
#X connect 3 0 29 0;
#X connect 3 0 30 0;
#X connect 3 0 31 0;
#X connect 4 0 31 0;
#X connect 5 0 30 0;
#X connect 6 0 29 0;
#X connect 7 0 31 0;
#X connect 8 0 27 0;
#X connect 9 0 19 0;
#X connect 10 0 20 0;
#X connect 11 0 21 0;
#X connect 12 0 22 0;
#X connect 13 0 23 0;
#X connect 14 0 24 0;
#X connect 15 0 25 0;
#X connect 16 0 9 0;
#X connect 16 0 10 0;
#X connect 16 0 11 0;
#X connect 16 0 12 0;
#X connect 16 0 13 0;
#X connect 16 0 14 0;
#X connect 16 0 15 0;
#X connect 17 0 18 0;
#X connect 18 0 3 0;
#X connect 18 0 16 0;
#X connect 26 0 28 0;
#X connect 27 0 35 0;
#X connect 27 1 16 0;
#X connect 28 0 33 0;
#X connect 29 0 36 0;
#X connect 29 1 16 0;
#X connect 30 0 37 0;
#X connect 30 1 16 0;
#X connect 31 0 38 0;
#X connect 31 1 16 0;
#X connect 32 0 33 0;
#X connect 33 0 1 0;
#X connect 33 0 9 0;
#X connect 33 1 10 0;
#X connect 33 1 2 0;
#X connect 33 2 11 0;
#X connect 33 2 4 0;
#X connect 33 3 12 0;
#X connect 33 3 5 0;
#X connect 33 4 13 0;
#X connect 33 4 6 0;
#X connect 33 5 14 0;
#X connect 33 5 7 0;
#X connect 33 6 15 0;
#X connect 33 6 8 0;
#X connect 33 7 16 0;
#X connect 33 8 34 0;
#X coords 0 -1 1 1 160 60 2 100 100;
#X restore 980 193 pd file_playback;
#X obj 193 363 bng 15 250 50 0 empty empty empty 17 7 0 10 -262144
-1 -1;
#X text 912 305 <- Rev;
#X text 913 335 <- Dist;
#X msg 984 13 tape 1 bang;
#X obj 981 156 s pedal_data;
#X msg 984 33 tape 2 bang;
#X msg 984 53 tape 3 bang;
#X msg 984 73 tape 4 bang;
#X msg 984 93 tape 5 bang;
#X msg 984 113 tape 6 bang;
#X msg 984 133 tape 7 bang;
#X obj 1063 279 r pedal_data;
#X obj 1063 323 spigot;
#X obj 1109 305 tgl 15 0 empty empty empty 17 7 0 10 -262144 -1 -1
0 1;
#X obj 18 83 input_routing one violine;
#X obj 1063 347 print FOH;
#X obj 19 194 *~ 1;
#X obj 139 192 *~ 1;
#X obj 259 193 *~ 1;
#X obj 380 192 *~ 1;
#X obj 500 192 *~ 1;
#X obj 620 193 *~ 1;
#X obj 740 192 *~ 1;
#X obj 864 191 *~ 1;
#X obj 740 57 adc~ 7;
#X obj 864 56 adc~ 8;
#X obj 19 316 dac~ 1 2 3 4 5 6 7 8, f 141;
#N canvas 0 22 338 125 output_transducer 0;
#X obj 11 50 dac~ 9 10 11 12, f 37;
#X obj 11 24 catch~ tr1;
#X obj 84 25 catch~ tr2;
#X obj 157 23 catch~ tr3;
#X obj 230 24 catch~ tr4;
#X connect 1 0 0 0;
#X connect 2 0 0 1;
#X connect 3 0 0 2;
#X connect 4 0 0 3;
#X restore 385 382 pd output_transducer;
#X obj 218 296 throw~ tr3;
#X obj 473 289 throw~ tr4;
#X obj 593 291 throw~ tr1;
#X obj 810 294 throw~ tr2;
#X connect 1 0 67 0;
#X connect 11 0 79 0;
#X connect 11 0 81 0;
#X connect 12 0 13 0;
#X connect 13 0 74 0;
#X connect 14 0 15 0;
#X connect 15 0 76 0;
#X connect 17 0 18 0;
#X connect 18 0 75 0;
#X connect 19 0 69 0;
#X connect 20 0 21 0;
#X connect 21 0 70 0;
#X connect 22 0 71 0;
#X connect 23 0 22 0;
#X connect 24 0 79 2;
#X connect 24 1 81 0;
#X connect 25 0 79 5;
#X connect 25 1 84 0;
#X connect 26 0 79 6;
#X connect 26 1 84 0;
#X connect 27 0 79 7;
#X connect 27 1 84 0;
#X connect 28 0 79 1;
#X connect 28 1 81 0;
#X connect 29 0 79 4;
#X connect 29 1 83 0;
#X connect 30 0 73 0;
#X connect 32 0 30 0;
#X connect 33 0 72 0;
#X connect 34 0 33 0;
#X connect 35 0 79 3;
#X connect 35 1 82 0;
#X connect 37 0 20 0;
#X connect 38 0 23 0;
#X connect 39 0 34 0;
#X connect 40 0 32 0;
#X connect 41 0 12 0;
#X connect 42 0 36 0;
#X connect 43 0 36 0;
#X connect 44 0 70 1;
#X connect 45 0 69 1;
#X connect 46 0 71 1;
#X connect 47 0 72 1;
#X connect 48 0 73 1;
#X connect 49 0 74 1;
#X connect 50 0 76 1;
#X connect 51 0 75 1;
#X connect 53 0 16 0;
#X connect 56 0 57 0;
#X connect 58 0 57 0;
#X connect 59 0 57 0;
#X connect 60 0 57 0;
#X connect 61 0 57 0;
#X connect 62 0 57 0;
#X connect 63 0 57 0;
#X connect 64 0 65 0;
#X connect 65 0 68 0;
#X connect 66 0 65 1;
#X connect 67 0 19 0;
#X connect 69 0 11 0;
#X connect 70 0 28 0;
#X connect 71 0 24 0;
#X connect 72 0 35 0;
#X connect 73 0 29 0;
#X connect 74 0 25 0;
#X connect 75 0 26 0;
#X connect 76 0 27 0;
#X connect 77 0 17 0;
#X connect 78 0 14 0;
